<svg version="1.1" id="Layer_1" xmlns="http://www.w3.org/2000/svg" x="0" y="0" viewBox="0 0 1440 411.6" xml:space="preserve"><style>.st1{fill-rule:evenodd;clip-rule:evenodd;fill:#ea3601;fill-opacity:.3}</style><path d="M1440-4c-168.6 245.5-409.5 380.7-722.9 405.6 343.5 10.4 584.5-42 722.9-157.3V-4z" fill-rule="evenodd" clip-rule="evenodd" fill="#fff" fill-opacity=".1"/><path class="st1" d="M1440 360.6V152.8c-199.2 191.5-446.8 275.7-742.8 252.6 11.3 2.2 22.6 4.2 33.7 6.2h593c43.3-13.1 82-30.1 116.1-51z"/><path d="M0 0v237.7c140.8 106 376.1 153.9 705.9 143.9C402.9 357.5 167.6 230.3 0 0z" fill-rule="evenodd" clip-rule="evenodd" fill="#fdce01" fill-opacity=".1"/><path class="st1" d="M0 109.7v245.6c19.2 13 40.8 26.2 64.8 39.6 10.7 5.9 21.6 11.5 32.9 16.7h645.5c79.6-21.5 164-49.2 253.3-83.2-368.9 92.9-701.1 20-996.5-218.7z"/><path d="M0 148.8v201.7c52.1 28.7 113.8 49 185.3 61.1H559c52.9-6.4 108.5-15.1 166.8-26.2C438.2 407.8 196.2 328.9 0 148.8z" fill-rule="evenodd" clip-rule="evenodd" fill="#f57c23"/><path class="st1" d="M1440 363.4V115.8C1140.4 365.5 802.5 443.1 426.5 348.4c63.7 24.3 124.9 45.4 183.7 63.2h753.9c28.9-16.3 54.2-32.4 75.9-48.2z"/><path d="M721 410.6c-287.4 0-545.2-69.3-721-179.2v180.2h1440V232.7c-175.7 109.1-432.7 177.9-719 177.9z" fill-rule="evenodd" clip-rule="evenodd" fill="#fff"/></svg>