<svg height="512pt" viewBox="0 -11 512 511" width="512pt" xmlns="http://www.w3.org/2000/svg"><path d="M6.488 159.684h109.754V489.89H6.488zM62.09.5C24.547.5 0 25.152 0 57.555c0 31.687 23.816 57.043 60.648 57.043h.715c38.278 0 62.098-25.356 62.098-57.043C122.746 25.152 99.64.5 62.09.5zm323.555 151.434c-58.235 0-84.329 32.004-98.915 54.507v-46.757H176.973V489.89h109.754V305.488c0-9.87.714-19.726 3.613-26.785 7.933-19.715 25.992-40.137 56.312-40.137 39.715 0 55.602 30.282 55.602 74.672v176.653H512V300.555c0-101.426-54.148-148.621-126.355-148.621zm0 0" fill="#069"/></svg>