<?xml version="1.0" encoding="UTF-8"?>
<svg xmlns="http://www.w3.org/2000/svg" width="898" height="187">
  <g id="Page-1" stroke="none" stroke-width="1" fill="none" fill-rule="evenodd">
    <g id="Door-to-Door" transform="translate(-281 -1472)">
      <g id="Group-9" transform="translate(283 1474)">
        <g id="Group-6">
          <g id="Group-4">
            <circle id="Oval" stroke="#F57C23" stroke-width="3" fill="#FFF" cx="29.5" cy="29.5" r="29.5"></circle>
            <path id="1" fill="#F57C23" fill-rule="nonzero" d="M29.64 18.975l-4.16 3.84-1.792-2.144 6.304-5.216h2.72v22.656H29.64z"></path>
          </g>
          <g id="Group-4-Copy" transform="translate(400)">
            <circle id="Oval" stroke="#F57C23" stroke-width="3" fill="#FFF" cx="29.5" cy="29.5" r="29.5"></circle>
            <path d="M22.576 36.736l9.088-9.024c.32-.299.63-.624.928-.976a8.79 8.79 0 0 0 .8-1.104c.235-.384.421-.79.56-1.216a4.32 4.32 0 0 0 .208-1.344c0-.555-.101-1.056-.304-1.504a3.303 3.303 0 0 0-.832-1.136 3.792 3.792 0 0 0-1.248-.72 4.503 4.503 0 0 0-1.52-.256c-1.11 0-2.027.31-2.752.928-.725.619-1.184 1.472-1.376 2.56l-3.328-.288c.15-1.003.443-1.872.88-2.608a6.314 6.314 0 0 1 1.632-1.84 6.637 6.637 0 0 1 2.24-1.088 10.167 10.167 0 0 1 2.736-.352c.981 0 1.904.133 2.768.4a6.778 6.778 0 0 1 2.272 1.184 5.536 5.536 0 0 1 1.536 1.952c.373.779.56 1.69.56 2.736 0 .747-.112 1.445-.336 2.096a8.844 8.844 0 0 1-.88 1.84c-.363.576-.779 1.12-1.248 1.632a33.03 33.03 0 0 1-1.472 1.504l-7.456 7.2h11.392V40H22.576v-3.264z" id="2" fill="#F57C23" fill-rule="nonzero"></path>
          </g>
          <g id="Group-4-Copy-2" transform="translate(835)">
            <circle id="Oval" stroke="#F57C23" stroke-width="3" fill="#FFF" cx="29.5" cy="29.5" r="29.5"></circle>
            <path d="M25.808 34.464c.363 1.088.848 1.899 1.456 2.432.608.533 1.51.8 2.704.8.597 0 1.157-.101 1.68-.304.523-.203.987-.48 1.392-.832.405-.352.725-.779.96-1.28a3.915 3.915 0 0 0 .352-1.68c0-.939-.197-1.69-.592-2.256a3.76 3.76 0 0 0-1.52-1.28 6.594 6.594 0 0 0-2.048-.56 19.436 19.436 0 0 0-2.208-.128v-2.688c1.173 0 2.133-.08 2.88-.24.747-.16 1.333-.39 1.76-.688.427-.299.725-.672.896-1.12.17-.448.256-.95.256-1.504 0-1.216-.363-2.133-1.088-2.752-.725-.619-1.632-.928-2.72-.928a3.79 3.79 0 0 0-2.256.72 4.467 4.467 0 0 0-1.52 1.904l-3.136-1.056c.597-1.45 1.51-2.523 2.736-3.216 1.227-.693 2.597-1.04 4.112-1.04.917 0 1.797.123 2.64.368a6.366 6.366 0 0 1 2.224 1.136 5.463 5.463 0 0 1 1.52 1.936c.373.779.56 1.69.56 2.736a5.144 5.144 0 0 1-1.072 3.2 5.33 5.33 0 0 1-2.8 1.92v.064a5.413 5.413 0 0 1 1.888.704 5.051 5.051 0 0 1 1.408 1.28c.384.512.672 1.083.864 1.712a6.82 6.82 0 0 1 .288 2c0 1.088-.208 2.043-.624 2.864a6.022 6.022 0 0 1-1.664 2.048 7.31 7.31 0 0 1-2.4 1.232 9.737 9.737 0 0 1-2.864.416c-1.728 0-3.248-.395-4.56-1.184-1.312-.79-2.224-2.037-2.736-3.744l3.232-.992z" id="3" fill="#F57C23" fill-rule="nonzero"></path>
          </g>
          <path d="M60 30h338.817" id="Line-5" stroke="#F57C23" stroke-width="4" stroke-linecap="square"></path>
          <path d="M460.031 30H835" id="Line-5-Copy" stroke="#F57C23" stroke-width="4" stroke-linecap="square"></path>
          <path d="M.824 79.256h2.574l4.05 9.648h.072l4.014-9.648h2.574V92H12.38V81.524h-.036L8.042 92H6.89L2.588 81.524h-.036V92H.824V79.256zm16.056 5.256a4.51 4.51 0 0 1 1.584-.945c.6-.21 1.2-.315 1.8-.315.624 0 1.161.078 1.611.234.45.156.819.366 1.107.63.288.264.501.567.639.909.138.342.207.699.207 1.071v4.356c0 .3.006.576.018.828.012.252.03.492.054.72h-1.44a15.6 15.6 0 0 1-.054-1.296h-.036c-.36.552-.786.942-1.278 1.17-.492.228-1.062.342-1.71.342-.396 0-.774-.054-1.134-.162a2.768 2.768 0 0 1-.945-.486 2.32 2.32 0 0 1-.639-.801 2.484 2.484 0 0 1-.234-1.107c0-.552.123-1.014.369-1.386a2.794 2.794 0 0 1 1.008-.909 4.866 4.866 0 0 1 1.494-.504c.57-.102 1.179-.153 1.827-.153h1.188v-.36a1.777 1.777 0 0 0-1.134-1.647 2.394 2.394 0 0 0-.9-.153 3.319 3.319 0 0 0-1.458.315c-.192.09-.366.195-.522.315-.156.12-.306.234-.45.342l-.972-1.008zm4.572 3.384c-.384 0-.777.021-1.179.063a4.608 4.608 0 0 0-1.098.243c-.33.12-.6.288-.81.504-.21.216-.315.492-.315.828 0 .492.165.846.495 1.062.33.216.777.324 1.341.324.444 0 .822-.075 1.134-.225.312-.15.564-.345.756-.585.192-.24.33-.507.414-.801.084-.294.126-.585.126-.873v-.54h-.864zm4.734-9.504h1.62v8.784l3.672-3.69h2.25l-3.978 3.87L34.07 92h-2.304l-3.96-4.428V92h-1.62V78.392zm10.566 9.936c0 .372.081.711.243 1.017.162.306.375.567.639.783.264.216.57.384.918.504.348.12.708.18 1.08.18.504 0 .942-.117 1.314-.351a4.23 4.23 0 0 0 1.026-.927l1.224.936c-.9 1.164-2.16 1.746-3.78 1.746a4.698 4.698 0 0 1-1.827-.342 3.978 3.978 0 0 1-1.386-.945 4.191 4.191 0 0 1-.873-1.422 5.026 5.026 0 0 1-.306-1.773c0-.636.111-1.227.333-1.773.222-.546.528-1.02.918-1.422a4.19 4.19 0 0 1 1.395-.945 4.489 4.489 0 0 1 1.764-.342c.756 0 1.395.132 1.917.396s.951.609 1.287 1.035c.336.426.579.906.729 1.44.15.534.225 1.077.225 1.629v.576h-6.84zm5.112-1.296a3.417 3.417 0 0 0-.171-.99 2.178 2.178 0 0 0-.459-.783 2.115 2.115 0 0 0-.765-.522 2.799 2.799 0 0 0-1.071-.189 2.653 2.653 0 0 0-2.457 1.611 2.203 2.203 0 0 0-.189.873h5.112zm8.712-2.52a4.51 4.51 0 0 1 1.584-.945c.6-.21 1.2-.315 1.8-.315.624 0 1.161.078 1.611.234.45.156.819.366 1.107.63.288.264.501.567.639.909.138.342.207.699.207 1.071v4.356c0 .3.006.576.018.828.012.252.03.492.054.72h-1.44a15.6 15.6 0 0 1-.054-1.296h-.036c-.36.552-.786.942-1.278 1.17-.492.228-1.062.342-1.71.342-.396 0-.774-.054-1.134-.162a2.768 2.768 0 0 1-.945-.486 2.32 2.32 0 0 1-.639-.801 2.484 2.484 0 0 1-.234-1.107c0-.552.123-1.014.369-1.386a2.794 2.794 0 0 1 1.008-.909 4.866 4.866 0 0 1 1.494-.504c.57-.102 1.179-.153 1.827-.153h1.188v-.36a1.777 1.777 0 0 0-1.134-1.647 2.394 2.394 0 0 0-.9-.153 3.319 3.319 0 0 0-1.458.315c-.192.09-.366.195-.522.315-.156.12-.306.234-.45.342l-.972-1.008zm4.572 3.384c-.384 0-.777.021-1.179.063a4.608 4.608 0 0 0-1.098.243c-.33.12-.6.288-.81.504-.21.216-.315.492-.315.828 0 .492.165.846.495 1.062.33.216.777.324 1.341.324.444 0 .822-.075 1.134-.225.312-.15.564-.345.756-.585.192-.24.33-.507.414-.801.084-.294.126-.585.126-.873v-.54h-.864zm4.734-4.428h1.62v1.314h.036c.204-.456.558-.825 1.062-1.107.504-.282 1.086-.423 1.746-.423.408 0 .801.063 1.179.189s.708.321.99.585c.282.264.507.603.675 1.017.168.414.252.903.252 1.467V92h-1.62v-5.04c0-.396-.054-.735-.162-1.017a1.858 1.858 0 0 0-.432-.684c-.18-.174-.387-.3-.621-.378a2.29 2.29 0 0 0-.729-.117c-.336 0-.648.054-.936.162a1.95 1.95 0 0 0-.756.513 2.422 2.422 0 0 0-.504.891c-.12.36-.18.786-.18 1.278V92h-1.62v-8.532zm16.326 4.266c0 .432.066.831.198 1.197a2.7 2.7 0 0 0 .558.936c.24.258.534.462.882.612.348.15.738.225 1.17.225.432 0 .822-.075 1.17-.225.348-.15.642-.354.882-.612a2.7 2.7 0 0 0 .558-.936c.132-.366.198-.765.198-1.197 0-.432-.066-.831-.198-1.197a2.7 2.7 0 0 0-.558-.936 2.583 2.583 0 0 0-.882-.612 2.927 2.927 0 0 0-1.17-.225c-.432 0-.822.075-1.17.225-.348.15-.642.354-.882.612a2.7 2.7 0 0 0-.558.936 3.504 3.504 0 0 0-.198 1.197zm-1.728 0c0-.624.117-1.206.351-1.746a4.494 4.494 0 0 1 2.403-2.385 4.518 4.518 0 0 1 1.782-.351 4.518 4.518 0 0 1 4.185 2.736c.234.54.351 1.122.351 1.746 0 .624-.117 1.209-.351 1.755a4.415 4.415 0 0 1-.963 1.422 4.57 4.57 0 0 1-3.222 1.305 4.57 4.57 0 0 1-3.222-1.305 4.415 4.415 0 0 1-.963-1.422 4.408 4.408 0 0 1-.351-1.755zm11.106-4.266h1.62v1.314h.036c.108-.228.252-.435.432-.621s.381-.345.603-.477c.222-.132.465-.237.729-.315.264-.078.528-.117.792-.117s.504.036.72.108l-.072 1.746a4.7 4.7 0 0 0-.396-.09 2.21 2.21 0 0 0-.396-.036c-.792 0-1.398.222-1.818.666-.42.444-.63 1.134-.63 2.07V92h-1.62v-8.532zM100.796 92h-1.62v-1.224h-.036c-.312.456-.741.81-1.287 1.062a3.976 3.976 0 0 1-1.683.378c-.66 0-1.257-.114-1.791-.342a3.958 3.958 0 0 1-1.368-.954 4.31 4.31 0 0 1-.873-1.422 4.952 4.952 0 0 1-.306-1.764c0-.636.102-1.227.306-1.773.204-.546.495-1.02.873-1.422a4.018 4.018 0 0 1 1.368-.945 4.518 4.518 0 0 1 1.791-.342c.612 0 1.188.129 1.728.387s.954.609 1.242 1.053h.036v-6.3h1.62V92zm-4.428-1.296c.432 0 .822-.075 1.17-.225.348-.15.642-.354.882-.612a2.7 2.7 0 0 0 .558-.936c.132-.366.198-.765.198-1.197 0-.432-.066-.831-.198-1.197a2.7 2.7 0 0 0-.558-.936 2.583 2.583 0 0 0-.882-.612 2.927 2.927 0 0 0-1.17-.225c-.432 0-.822.075-1.17.225-.348.15-.642.354-.882.612a2.7 2.7 0 0 0-.558.936 3.504 3.504 0 0 0-.198 1.197c0 .432.066.831.198 1.197a2.7 2.7 0 0 0 .558.936c.24.258.534.462.882.612.348.15.738.225 1.17.225zm8.1-2.376c0 .372.081.711.243 1.017.162.306.375.567.639.783.264.216.57.384.918.504.348.12.708.18 1.08.18.504 0 .942-.117 1.314-.351a4.23 4.23 0 0 0 1.026-.927l1.224.936c-.9 1.164-2.16 1.746-3.78 1.746a4.698 4.698 0 0 1-1.827-.342 3.978 3.978 0 0 1-1.386-.945 4.191 4.191 0 0 1-.873-1.422 5.026 5.026 0 0 1-.306-1.773c0-.636.111-1.227.333-1.773.222-.546.528-1.02.918-1.422a4.19 4.19 0 0 1 1.395-.945 4.489 4.489 0 0 1 1.764-.342c.756 0 1.395.132 1.917.396s.951.609 1.287 1.035c.336.426.579.906.729 1.44.15.534.225 1.077.225 1.629v.576h-6.84zm5.112-1.296a3.417 3.417 0 0 0-.171-.99 2.178 2.178 0 0 0-.459-.783 2.115 2.115 0 0 0-.765-.522 2.799 2.799 0 0 0-1.071-.189 2.653 2.653 0 0 0-2.457 1.611 2.203 2.203 0 0 0-.189.873h5.112zm3.672-3.564h1.62v1.314h.036c.108-.228.252-.435.432-.621s.381-.345.603-.477c.222-.132.465-.237.729-.315.264-.078.528-.117.792-.117s.504.036.72.108l-.072 1.746a4.7 4.7 0 0 0-.396-.09 2.21 2.21 0 0 0-.396-.036c-.792 0-1.398.222-1.818.666-.42.444-.63 1.134-.63 2.07V92h-1.62v-8.532z" id="Makeanorder" fill="#F57C23" fill-rule="nonzero"></path>
          <path d="M308.157 79.256h1.8l2.808 10.188h.036l3.006-10.188h1.98l3.006 10.188h.036l2.808-10.188h1.8L321.729 92h-1.818l-3.096-10.404h-.036L313.701 92h-1.818l-3.726-12.744zm18.558 5.256a4.51 4.51 0 0 1 1.584-.945c.6-.21 1.2-.315 1.8-.315.624 0 1.161.078 1.611.234.45.156.819.366 1.107.63.288.264.501.567.639.909.138.342.207.699.207 1.071v4.356c0 .3.006.576.018.828.012.252.03.492.054.72h-1.44a15.6 15.6 0 0 1-.054-1.296h-.036c-.36.552-.786.942-1.278 1.17-.492.228-1.062.342-1.71.342-.396 0-.774-.054-1.134-.162a2.768 2.768 0 0 1-.945-.486 2.32 2.32 0 0 1-.639-.801 2.484 2.484 0 0 1-.234-1.107c0-.552.123-1.014.369-1.386a2.794 2.794 0 0 1 1.008-.909 4.866 4.866 0 0 1 1.494-.504c.57-.102 1.179-.153 1.827-.153h1.188v-.36a1.777 1.777 0 0 0-1.134-1.647 2.394 2.394 0 0 0-.9-.153 3.319 3.319 0 0 0-1.458.315c-.192.09-.366.195-.522.315-.156.12-.306.234-.45.342l-.972-1.008zm4.572 3.384c-.384 0-.777.021-1.179.063a4.608 4.608 0 0 0-1.098.243c-.33.12-.6.288-.81.504-.21.216-.315.492-.315.828 0 .492.165.846.495 1.062.33.216.777.324 1.341.324.444 0 .822-.075 1.134-.225.312-.15.564-.345.756-.585.192-.24.33-.507.414-.801.084-.294.126-.585.126-.873v-.54h-.864zm4.86-4.428h1.62V92h-1.62v-8.532zm-.378-3.06c0-.324.117-.603.351-.837.234-.234.513-.351.837-.351.324 0 .603.117.837.351.234.234.351.513.351.837 0 .324-.117.603-.351.837a1.143 1.143 0 0 1-.837.351c-.324 0-.603-.117-.837-.351a1.143 1.143 0 0 1-.351-.837zm9.144 4.464h-2.322v3.87c0 .24.006.477.018.711.012.234.057.444.135.63.078.186.198.336.36.45.162.114.399.171.711.171.192 0 .39-.018.594-.054.204-.036.39-.102.558-.198v1.476a2.114 2.114 0 0 1-.747.225 5.606 5.606 0 0 1-.711.063c-.624 0-1.107-.087-1.449-.261-.342-.174-.594-.399-.756-.675a2.183 2.183 0 0 1-.288-.927c-.03-.342-.045-.687-.045-1.035v-4.446h-1.872v-1.404h1.872v-2.394h1.62v2.394h2.322v1.404zm7.722 0h-1.836v-1.404h1.836V81.56c0-1.14.219-1.989.657-2.547.438-.558 1.191-.837 2.259-.837.18 0 .369.006.567.018.198.012.411.048.639.108l-.18 1.44a2.32 2.32 0 0 0-.45-.126 2.851 2.851 0 0 0-.468-.036c-.3 0-.54.045-.72.135-.18.09-.321.219-.423.387a1.522 1.522 0 0 0-.198.603c-.03.234-.045.501-.045.801v1.962h1.926v1.404h-1.944V92h-1.62v-7.128zm6.678 2.862c0 .432.066.831.198 1.197a2.7 2.7 0 0 0 .558.936c.24.258.534.462.882.612.348.15.738.225 1.17.225.432 0 .822-.075 1.17-.225.348-.15.642-.354.882-.612a2.7 2.7 0 0 0 .558-.936c.132-.366.198-.765.198-1.197 0-.432-.066-.831-.198-1.197a2.7 2.7 0 0 0-.558-.936 2.583 2.583 0 0 0-.882-.612 2.927 2.927 0 0 0-1.17-.225c-.432 0-.822.075-1.17.225-.348.15-.642.354-.882.612a2.7 2.7 0 0 0-.558.936 3.504 3.504 0 0 0-.198 1.197zm-1.728 0c0-.624.117-1.206.351-1.746a4.494 4.494 0 0 1 2.403-2.385 4.518 4.518 0 0 1 1.782-.351 4.518 4.518 0 0 1 4.185 2.736c.234.54.351 1.122.351 1.746 0 .624-.117 1.209-.351 1.755a4.415 4.415 0 0 1-.963 1.422 4.57 4.57 0 0 1-3.222 1.305 4.57 4.57 0 0 1-3.222-1.305 4.415 4.415 0 0 1-.963-1.422 4.408 4.408 0 0 1-.351-1.755zm11.106-4.266h1.62v1.314h.036c.108-.228.252-.435.432-.621s.381-.345.603-.477c.222-.132.465-.237.729-.315.264-.078.528-.117.792-.117s.504.036.72.108l-.072 1.746a4.7 4.7 0 0 0-.396-.09 2.21 2.21 0 0 0-.396-.036c-.792 0-1.398.222-1.818.666-.42.444-.63 1.134-.63 2.07V92h-1.62v-8.532zm12.978 4.266c0 .432.066.831.198 1.197a2.7 2.7 0 0 0 .558.936c.24.258.534.462.882.612.348.15.738.225 1.17.225.432 0 .822-.075 1.17-.225.348-.15.642-.354.882-.612a2.7 2.7 0 0 0 .558-.936c.132-.366.198-.765.198-1.197 0-.432-.066-.831-.198-1.197a2.7 2.7 0 0 0-.558-.936 2.583 2.583 0 0 0-.882-.612 2.927 2.927 0 0 0-1.17-.225c-.432 0-.822.075-1.17.225-.348.15-.642.354-.882.612a2.7 2.7 0 0 0-.558.936 3.504 3.504 0 0 0-.198 1.197zm-1.728 0c0-.624.117-1.206.351-1.746a4.494 4.494 0 0 1 2.403-2.385 4.518 4.518 0 0 1 1.782-.351 4.518 4.518 0 0 1 4.185 2.736c.234.54.351 1.122.351 1.746 0 .624-.117 1.209-.351 1.755a4.415 4.415 0 0 1-.963 1.422 4.57 4.57 0 0 1-3.222 1.305 4.57 4.57 0 0 1-3.222-1.305 4.415 4.415 0 0 1-.963-1.422 4.408 4.408 0 0 1-.351-1.755zm11.106-4.266h1.62v1.314h.036c.108-.228.252-.435.432-.621s.381-.345.603-.477c.222-.132.465-.237.729-.315.264-.078.528-.117.792-.117s.504.036.72.108l-.072 1.746a4.7 4.7 0 0 0-.396-.09 2.21 2.21 0 0 0-.396-.036c-.792 0-1.398.222-1.818.666-.42.444-.63 1.134-.63 2.07V92h-1.62v-8.532zM406.257 92h-1.62v-1.224h-.036c-.312.456-.741.81-1.287 1.062a3.976 3.976 0 0 1-1.683.378c-.66 0-1.257-.114-1.791-.342a3.958 3.958 0 0 1-1.368-.954 4.31 4.31 0 0 1-.873-1.422 4.952 4.952 0 0 1-.306-1.764c0-.636.102-1.227.306-1.773.204-.546.495-1.02.873-1.422a4.018 4.018 0 0 1 1.368-.945 4.518 4.518 0 0 1 1.791-.342c.612 0 1.188.129 1.728.387s.954.609 1.242 1.053h.036v-6.3h1.62V92zm-4.428-1.296c.432 0 .822-.075 1.17-.225.348-.15.642-.354.882-.612a2.7 2.7 0 0 0 .558-.936c.132-.366.198-.765.198-1.197 0-.432-.066-.831-.198-1.197a2.7 2.7 0 0 0-.558-.936 2.583 2.583 0 0 0-.882-.612 2.927 2.927 0 0 0-1.17-.225c-.432 0-.822.075-1.17.225-.348.15-.642.354-.882.612a2.7 2.7 0 0 0-.558.936 3.504 3.504 0 0 0-.198 1.197c0 .432.066.831.198 1.197a2.7 2.7 0 0 0 .558.936c.24.258.534.462.882.612.348.15.738.225 1.17.225zm8.1-2.376c0 .372.081.711.243 1.017.162.306.375.567.639.783.264.216.57.384.918.504.348.12.708.18 1.08.18.504 0 .942-.117 1.314-.351a4.23 4.23 0 0 0 1.026-.927l1.224.936c-.9 1.164-2.16 1.746-3.78 1.746a4.698 4.698 0 0 1-1.827-.342 3.978 3.978 0 0 1-1.386-.945 4.191 4.191 0 0 1-.873-1.422 5.026 5.026 0 0 1-.306-1.773c0-.636.111-1.227.333-1.773.222-.546.528-1.02.918-1.422a4.19 4.19 0 0 1 1.395-.945 4.489 4.489 0 0 1 1.764-.342c.756 0 1.395.132 1.917.396s.951.609 1.287 1.035c.336.426.579.906.729 1.44.15.534.225 1.077.225 1.629v.576h-6.84zm5.112-1.296a3.417 3.417 0 0 0-.171-.99 2.178 2.178 0 0 0-.459-.783 2.115 2.115 0 0 0-.765-.522 2.799 2.799 0 0 0-1.071-.189 2.653 2.653 0 0 0-2.457 1.611 2.203 2.203 0 0 0-.189.873h5.112zm3.672-3.564h1.62v1.314h.036c.108-.228.252-.435.432-.621s.381-.345.603-.477c.222-.132.465-.237.729-.315.264-.078.528-.117.792-.117s.504.036.72.108l-.072 1.746a4.7 4.7 0 0 0-.396-.09 2.21 2.21 0 0 0-.396-.036c-.792 0-1.398.222-1.818.666-.42.444-.63 1.134-.63 2.07V92h-1.62v-8.532zm17.766 2.268a3.4 3.4 0 0 0-.945-.711c-.33-.162-.723-.243-1.179-.243-.444 0-.831.081-1.161.243-.33.162-.606.384-.828.666-.222.282-.39.606-.504.972a3.821 3.821 0 0 0-.171 1.143c0 .396.066.771.198 1.125s.318.663.558.927c.24.264.528.471.864.621.336.15.714.225 1.134.225.456 0 .846-.081 1.17-.243.324-.162.624-.399.9-.711l1.152 1.152c-.42.468-.909.804-1.467 1.008a5.123 5.123 0 0 1-1.773.306c-.66 0-1.263-.108-1.809-.324a4.178 4.178 0 0 1-1.413-.909 4.017 4.017 0 0 1-.918-1.404 4.877 4.877 0 0 1-.324-1.809c0-.66.108-1.266.324-1.818a4.159 4.159 0 0 1 .909-1.422c.39-.396.858-.705 1.404-.927a4.81 4.81 0 0 1 1.827-.333c.624 0 1.221.111 1.791.333.57.222 1.065.561 1.485 1.017l-1.224 1.116zm3.888 1.998c0 .432.066.831.198 1.197a2.7 2.7 0 0 0 .558.936c.24.258.534.462.882.612.348.15.738.225 1.17.225.432 0 .822-.075 1.17-.225.348-.15.642-.354.882-.612a2.7 2.7 0 0 0 .558-.936c.132-.366.198-.765.198-1.197 0-.432-.066-.831-.198-1.197a2.7 2.7 0 0 0-.558-.936 2.583 2.583 0 0 0-.882-.612 2.927 2.927 0 0 0-1.17-.225c-.432 0-.822.075-1.17.225-.348.15-.642.354-.882.612a2.7 2.7 0 0 0-.558.936 3.504 3.504 0 0 0-.198 1.197zm-1.728 0c0-.624.117-1.206.351-1.746a4.494 4.494 0 0 1 2.403-2.385 4.518 4.518 0 0 1 1.782-.351 4.518 4.518 0 0 1 4.185 2.736c.234.54.351 1.122.351 1.746 0 .624-.117 1.209-.351 1.755a4.415 4.415 0 0 1-.963 1.422 4.57 4.57 0 0 1-3.222 1.305 4.57 4.57 0 0 1-3.222-1.305 4.415 4.415 0 0 1-.963-1.422 4.408 4.408 0 0 1-.351-1.755zm11.106-4.266h1.62v1.314h.036c.204-.456.558-.825 1.062-1.107.504-.282 1.086-.423 1.746-.423.408 0 .801.063 1.179.189s.708.321.99.585c.282.264.507.603.675 1.017.168.414.252.903.252 1.467V92h-1.62v-5.04c0-.396-.054-.735-.162-1.017a1.858 1.858 0 0 0-.432-.684c-.18-.174-.387-.3-.621-.378a2.29 2.29 0 0 0-.729-.117c-.336 0-.648.054-.936.162a1.95 1.95 0 0 0-.756.513 2.422 2.422 0 0 0-.504.891c-.12.36-.18.786-.18 1.278V92h-1.62v-8.532zm10.638 1.404h-1.836v-1.404h1.836V81.56c0-1.14.219-1.989.657-2.547.438-.558 1.191-.837 2.259-.837.18 0 .369.006.567.018.198.012.411.048.639.108l-.18 1.44a2.32 2.32 0 0 0-.45-.126 2.851 2.851 0 0 0-.468-.036c-.3 0-.54.045-.72.135-.18.09-.321.219-.423.387a1.522 1.522 0 0 0-.198.603c-.03.234-.045.501-.045.801v1.962h1.926v1.404h-1.944V92h-1.62v-7.128zm5.49-1.404h1.62V92h-1.62v-8.532zm-.378-3.06c0-.324.117-.603.351-.837.234-.234.513-.351.837-.351.324 0 .603.117.837.351.234.234.351.513.351.837 0 .324-.117.603-.351.837a1.143 1.143 0 0 1-.837.351c-.324 0-.603-.117-.837-.351a1.143 1.143 0 0 1-.351-.837zm4.572 3.06h1.62v1.314h.036c.108-.228.252-.435.432-.621s.381-.345.603-.477c.222-.132.465-.237.729-.315.264-.078.528-.117.792-.117s.504.036.72.108l-.072 1.746a4.7 4.7 0 0 0-.396-.09 2.21 2.21 0 0 0-.396-.036c-.792 0-1.398.222-1.818.666-.42.444-.63 1.134-.63 2.07V92h-1.62v-8.532zm6.66 0h1.512V84.8h.036c.036-.12.129-.27.279-.45.15-.18.342-.351.576-.513.234-.162.51-.3.828-.414a3.101 3.101 0 0 1 1.053-.171c.636 0 1.17.132 1.602.396.432.264.786.66 1.062 1.188a2.73 2.73 0 0 1 1.17-1.188 3.266 3.266 0 0 1 1.53-.396c.66 0 1.2.108 1.62.324.42.216.75.501.99.855s.405.756.495 1.206c.09.45.135.915.135 1.395V92h-1.62v-4.752c0-.324-.021-.636-.063-.936a2.163 2.163 0 0 0-.261-.792 1.486 1.486 0 0 0-.558-.549c-.24-.138-.558-.207-.954-.207-.78 0-1.338.24-1.674.72-.336.48-.504 1.098-.504 1.854V92h-1.62v-4.464c0-.408-.021-.78-.063-1.116a2.617 2.617 0 0 0-.252-.873 1.39 1.39 0 0 0-.54-.576c-.234-.138-.549-.207-.945-.207-.288 0-.567.057-.837.171a1.98 1.98 0 0 0-.711.513 2.49 2.49 0 0 0-.486.873c-.12.354-.18.771-.18 1.251V92h-1.62v-8.532zm15.372 1.044a4.51 4.51 0 0 1 1.584-.945c.6-.21 1.2-.315 1.8-.315.624 0 1.161.078 1.611.234.45.156.819.366 1.107.63.288.264.501.567.639.909.138.342.207.699.207 1.071v4.356c0 .3.006.576.018.828.012.252.03.492.054.72h-1.44a15.6 15.6 0 0 1-.054-1.296h-.036c-.36.552-.786.942-1.278 1.17-.492.228-1.062.342-1.71.342-.396 0-.774-.054-1.134-.162a2.768 2.768 0 0 1-.945-.486 2.32 2.32 0 0 1-.639-.801 2.484 2.484 0 0 1-.234-1.107c0-.552.123-1.014.369-1.386a2.794 2.794 0 0 1 1.008-.909 4.866 4.866 0 0 1 1.494-.504c.57-.102 1.179-.153 1.827-.153h1.188v-.36a1.777 1.777 0 0 0-1.134-1.647 2.394 2.394 0 0 0-.9-.153 3.319 3.319 0 0 0-1.458.315c-.192.09-.366.195-.522.315-.156.12-.306.234-.45.342l-.972-1.008zm4.572 3.384c-.384 0-.777.021-1.179.063a4.608 4.608 0 0 0-1.098.243c-.33.12-.6.288-.81.504-.21.216-.315.492-.315.828 0 .492.165.846.495 1.062.33.216.777.324 1.341.324.444 0 .822-.075 1.134-.225.312-.15.564-.345.756-.585.192-.24.33-.507.414-.801.084-.294.126-.585.126-.873v-.54h-.864zm9.306-3.024h-2.322v3.87c0 .24.006.477.018.711.012.234.057.444.135.63.078.186.198.336.36.45.162.114.399.171.711.171.192 0 .39-.018.594-.054.204-.036.39-.102.558-.198v1.476a2.114 2.114 0 0 1-.747.225 5.606 5.606 0 0 1-.711.063c-.624 0-1.107-.087-1.449-.261-.342-.174-.594-.399-.756-.675a2.183 2.183 0 0 1-.288-.927c-.03-.342-.045-.687-.045-1.035v-4.446h-1.872v-1.404h1.872v-2.394h1.62v2.394h2.322v1.404zm2.214-1.404h1.62V92h-1.62v-8.532zm-.378-3.06c0-.324.117-.603.351-.837.234-.234.513-.351.837-.351.324 0 .603.117.837.351.234.234.351.513.351.837 0 .324-.117.603-.351.837a1.143 1.143 0 0 1-.837.351c-.324 0-.603-.117-.837-.351a1.143 1.143 0 0 1-.351-.837zm5.886 7.326c0 .432.066.831.198 1.197a2.7 2.7 0 0 0 .558.936c.24.258.534.462.882.612.348.15.738.225 1.17.225.432 0 .822-.075 1.17-.225.348-.15.642-.354.882-.612a2.7 2.7 0 0 0 .558-.936c.132-.366.198-.765.198-1.197 0-.432-.066-.831-.198-1.197a2.7 2.7 0 0 0-.558-.936 2.583 2.583 0 0 0-.882-.612 2.927 2.927 0 0 0-1.17-.225c-.432 0-.822.075-1.17.225-.348.15-.642.354-.882.612a2.7 2.7 0 0 0-.558.936 3.504 3.504 0 0 0-.198 1.197zm-1.728 0c0-.624.117-1.206.351-1.746a4.494 4.494 0 0 1 2.403-2.385 4.518 4.518 0 0 1 1.782-.351 4.518 4.518 0 0 1 4.185 2.736c.234.54.351 1.122.351 1.746 0 .624-.117 1.209-.351 1.755a4.415 4.415 0 0 1-.963 1.422 4.57 4.57 0 0 1-3.222 1.305 4.57 4.57 0 0 1-3.222-1.305 4.415 4.415 0 0 1-.963-1.422 4.408 4.408 0 0 1-.351-1.755zm11.106-4.266h1.62v1.314h.036c.204-.456.558-.825 1.062-1.107.504-.282 1.086-.423 1.746-.423.408 0 .801.063 1.179.189s.708.321.99.585c.282.264.507.603.675 1.017.168.414.252.903.252 1.467V92h-1.62v-5.04c0-.396-.054-.735-.162-1.017a1.858 1.858 0 0 0-.432-.684c-.18-.174-.387-.3-.621-.378a2.29 2.29 0 0 0-.729-.117c-.336 0-.648.054-.936.162a1.95 1.95 0 0 0-.756.513 2.422 2.422 0 0 0-.504.891c-.12.36-.18.786-.18 1.278V92h-1.62v-8.532zm-236.673 25.044a4.51 4.51 0 0 1 1.584-.945c.6-.21 1.2-.315 1.8-.315.624 0 1.161.078 1.611.234.45.156.819.366 1.107.63.288.264.501.567.639.909.138.342.207.699.207 1.071v4.356c0 .3.006.576.018.828.012.252.03.492.054.72h-1.44a15.6 15.6 0 0 1-.054-1.296h-.036c-.36.552-.786.942-1.278 1.17-.492.228-1.062.342-1.71.342-.396 0-.774-.054-1.134-.162a2.768 2.768 0 0 1-.945-.486 2.32 2.32 0 0 1-.639-.801 2.484 2.484 0 0 1-.234-1.107c0-.552.123-1.014.369-1.386a2.794 2.794 0 0 1 1.008-.909 4.866 4.866 0 0 1 1.494-.504c.57-.102 1.179-.153 1.827-.153h1.188v-.36a1.777 1.777 0 0 0-1.134-1.647 2.394 2.394 0 0 0-.9-.153 3.319 3.319 0 0 0-1.458.315c-.192.09-.366.195-.522.315-.156.12-.306.234-.45.342l-.972-1.008zm4.572 3.384c-.384 0-.777.021-1.179.063a4.608 4.608 0 0 0-1.098.243c-.33.12-.6.288-.81.504-.21.216-.315.492-.315.828 0 .492.165.846.495 1.062.33.216.777.324 1.341.324.444 0 .822-.075 1.134-.225.312-.15.564-.345.756-.585.192-.24.33-.507.414-.801.084-.294.126-.585.126-.873v-.54h-.864zm5.364-3.024h-1.836v-1.404h1.836v-1.908c0-1.14.219-1.989.657-2.547.438-.558 1.191-.837 2.259-.837.18 0 .369.006.567.018.198.012.411.048.639.108l-.18 1.44a2.32 2.32 0 0 0-.45-.126 2.851 2.851 0 0 0-.468-.036c-.3 0-.54.045-.72.135-.18.09-.321.219-.423.387a1.522 1.522 0 0 0-.198.603c-.03.234-.045.501-.045.801v1.962h1.926v1.404h-1.944V116h-1.62v-7.128zm9.936 0h-2.322v3.87c0 .24.006.477.018.711.012.234.057.444.135.63.078.186.198.336.36.45.162.114.399.171.711.171.192 0 .39-.018.594-.054.204-.036.39-.102.558-.198v1.476a2.114 2.114 0 0 1-.747.225 5.607 5.607 0 0 1-.711.063c-.624 0-1.107-.087-1.449-.261-.342-.174-.594-.399-.756-.675a2.183 2.183 0 0 1-.288-.927c-.03-.342-.045-.687-.045-1.035v-4.446h-1.872v-1.404h1.872v-2.394h1.62v2.394h2.322v1.404zm3.312 3.456c0 .372.081.711.243 1.017.162.306.375.567.639.783.264.216.57.384.918.504.348.12.708.18 1.08.18.504 0 .942-.117 1.314-.351a4.23 4.23 0 0 0 1.026-.927l1.224.936c-.9 1.164-2.16 1.746-3.78 1.746a4.698 4.698 0 0 1-1.827-.342 3.978 3.978 0 0 1-1.386-.945 4.191 4.191 0 0 1-.873-1.422 5.026 5.026 0 0 1-.306-1.773c0-.636.111-1.227.333-1.773.222-.546.528-1.02.918-1.422a4.19 4.19 0 0 1 1.395-.945 4.489 4.489 0 0 1 1.764-.342c.756 0 1.395.132 1.917.396s.951.609 1.287 1.035c.336.426.579.906.729 1.44.15.534.225 1.077.225 1.629v.576h-6.84zm5.112-1.296a3.417 3.417 0 0 0-.171-.99 2.178 2.178 0 0 0-.459-.783 2.115 2.115 0 0 0-.765-.522 2.799 2.799 0 0 0-1.071-.189 2.653 2.653 0 0 0-2.457 1.611 2.203 2.203 0 0 0-.189.873h5.112zm3.672-3.564h1.62v1.314h.036c.108-.228.252-.435.432-.621s.381-.345.603-.477c.222-.132.465-.237.729-.315.264-.078.528-.117.792-.117s.504.036.72.108l-.072 1.746a4.7 4.7 0 0 0-.396-.09 2.21 2.21 0 0 0-.396-.036c-.792 0-1.398.222-1.818.666-.42.444-.63 1.134-.63 2.07V116h-1.62v-8.532zm10.638 0h1.818l1.926 6.372h.036l2.034-6.372h1.71l2.16 6.372h.036l1.836-6.372h1.71L339.522 116h-1.638l-2.25-6.372h-.036L333.564 116h-1.746l-2.808-8.532zm15.912 4.86c0 .372.081.711.243 1.017.162.306.375.567.639.783.264.216.57.384.918.504.348.12.708.18 1.08.18.504 0 .942-.117 1.314-.351a4.23 4.23 0 0 0 1.026-.927l1.224.936c-.9 1.164-2.16 1.746-3.78 1.746a4.698 4.698 0 0 1-1.827-.342 3.978 3.978 0 0 1-1.386-.945 4.191 4.191 0 0 1-.873-1.422 5.026 5.026 0 0 1-.306-1.773c0-.636.111-1.227.333-1.773.222-.546.528-1.02.918-1.422a4.19 4.19 0 0 1 1.395-.945 4.489 4.489 0 0 1 1.764-.342c.756 0 1.395.132 1.917.396s.951.609 1.287 1.035c.336.426.579.906.729 1.44.15.534.225 1.077.225 1.629v.576h-6.84zm5.112-1.296a3.417 3.417 0 0 0-.171-.99 2.178 2.178 0 0 0-.459-.783 2.115 2.115 0 0 0-.765-.522 2.799 2.799 0 0 0-1.071-.189 2.653 2.653 0 0 0-2.457 1.611 2.203 2.203 0 0 0-.189.873h5.112zm8.676-3.564h1.62v1.314h.036c.108-.228.252-.435.432-.621s.381-.345.603-.477c.222-.132.465-.237.729-.315.264-.078.528-.117.792-.117s.504.036.72.108l-.072 1.746a4.7 4.7 0 0 0-.396-.09 2.21 2.21 0 0 0-.396-.036c-.792 0-1.398.222-1.818.666-.42.444-.63 1.134-.63 2.07V116h-1.62v-8.532zm7.884 4.86c0 .372.081.711.243 1.017.162.306.375.567.639.783.264.216.57.384.918.504.348.12.708.18 1.08.18.504 0 .942-.117 1.314-.351a4.23 4.23 0 0 0 1.026-.927l1.224.936c-.9 1.164-2.16 1.746-3.78 1.746a4.698 4.698 0 0 1-1.827-.342 3.978 3.978 0 0 1-1.386-.945 4.191 4.191 0 0 1-.873-1.422 5.026 5.026 0 0 1-.306-1.773c0-.636.111-1.227.333-1.773.222-.546.528-1.02.918-1.422a4.19 4.19 0 0 1 1.395-.945 4.489 4.489 0 0 1 1.764-.342c.756 0 1.395.132 1.917.396s.951.609 1.287 1.035c.336.426.579.906.729 1.44.15.534.225 1.077.225 1.629v.576h-6.84zm5.112-1.296a3.417 3.417 0 0 0-.171-.99 2.178 2.178 0 0 0-.459-.783 2.115 2.115 0 0 0-.765-.522 2.799 2.799 0 0 0-1.071-.189 2.653 2.653 0 0 0-2.457 1.611 2.203 2.203 0 0 0-.189.873h5.112zm9.774-1.296a3.4 3.4 0 0 0-.945-.711c-.33-.162-.723-.243-1.179-.243-.444 0-.831.081-1.161.243-.33.162-.606.384-.828.666-.222.282-.39.606-.504.972a3.821 3.821 0 0 0-.171 1.143c0 .396.066.771.198 1.125s.318.663.558.927c.24.264.528.471.864.621.336.15.714.225 1.134.225.456 0 .846-.081 1.17-.243.324-.162.624-.399.9-.711l1.152 1.152c-.42.468-.909.804-1.467 1.008a5.123 5.123 0 0 1-1.773.306c-.66 0-1.263-.108-1.809-.324a4.178 4.178 0 0 1-1.413-.909 4.017 4.017 0 0 1-.918-1.404 4.877 4.877 0 0 1-.324-1.809c0-.66.108-1.266.324-1.818a4.159 4.159 0 0 1 .909-1.422c.39-.396.858-.705 1.404-.927a4.81 4.81 0 0 1 1.827-.333c.624 0 1.221.111 1.791.333.57.222 1.065.561 1.485 1.017l-1.224 1.116zm3.798 2.592c0 .372.081.711.243 1.017.162.306.375.567.639.783.264.216.57.384.918.504.348.12.708.18 1.08.18.504 0 .942-.117 1.314-.351a4.23 4.23 0 0 0 1.026-.927l1.224.936c-.9 1.164-2.16 1.746-3.78 1.746a4.698 4.698 0 0 1-1.827-.342 3.978 3.978 0 0 1-1.386-.945 4.191 4.191 0 0 1-.873-1.422 5.026 5.026 0 0 1-.306-1.773c0-.636.111-1.227.333-1.773.222-.546.528-1.02.918-1.422a4.19 4.19 0 0 1 1.395-.945 4.489 4.489 0 0 1 1.764-.342c.756 0 1.395.132 1.917.396s.951.609 1.287 1.035c.336.426.579.906.729 1.44.15.534.225 1.077.225 1.629v.576h-6.84zm5.112-1.296a3.417 3.417 0 0 0-.171-.99 2.178 2.178 0 0 0-.459-.783 2.115 2.115 0 0 0-.765-.522 2.799 2.799 0 0 0-1.071-.189 2.653 2.653 0 0 0-2.457 1.611 2.203 2.203 0 0 0-.189.873h5.112zm3.798-3.564h1.62V116h-1.62v-8.532zm-.378-3.06c0-.324.117-.603.351-.837.234-.234.513-.351.837-.351.324 0 .603.117.837.351.234.234.351.513.351.837 0 .324-.117.603-.351.837a1.143 1.143 0 0 1-.837.351c-.324 0-.603-.117-.837-.351a1.143 1.143 0 0 1-.351-.837zm3.546 3.06h1.872l2.556 6.534 2.448-6.534h1.728L402.612 116h-1.782l-3.474-8.532zm11.25 4.86c0 .372.081.711.243 1.017.162.306.375.567.639.783.264.216.57.384.918.504.348.12.708.18 1.08.18.504 0 .942-.117 1.314-.351a4.23 4.23 0 0 0 1.026-.927l1.224.936c-.9 1.164-2.16 1.746-3.78 1.746a4.698 4.698 0 0 1-1.827-.342 3.978 3.978 0 0 1-1.386-.945 4.191 4.191 0 0 1-.873-1.422 5.026 5.026 0 0 1-.306-1.773c0-.636.111-1.227.333-1.773.222-.546.528-1.02.918-1.422a4.19 4.19 0 0 1 1.395-.945 4.489 4.489 0 0 1 1.764-.342c.756 0 1.395.132 1.917.396s.951.609 1.287 1.035c.336.426.579.906.729 1.44.15.534.225 1.077.225 1.629v.576h-6.84zm5.112-1.296a3.417 3.417 0 0 0-.171-.99 2.178 2.178 0 0 0-.459-.783 2.115 2.115 0 0 0-.765-.522 2.799 2.799 0 0 0-1.071-.189 2.653 2.653 0 0 0-2.457 1.611 2.203 2.203 0 0 0-.189.873h5.112zm8.676-3.564h1.62v1.224h.036c.312-.456.741-.81 1.287-1.062a3.976 3.976 0 0 1 1.683-.378c.66 0 1.257.114 1.791.342.534.228.99.546 1.368.954.378.408.669.885.873 1.431.204.546.306 1.131.306 1.755 0 .636-.102 1.227-.306 1.773a4.191 4.191 0 0 1-.873 1.422 4.018 4.018 0 0 1-1.368.945 4.518 4.518 0 0 1-1.791.342 3.958 3.958 0 0 1-1.728-.387c-.54-.258-.954-.609-1.242-1.053h-.036v6.3h-1.62v-13.608zm4.428 1.296c-.432 0-.822.075-1.17.225-.348.15-.642.354-.882.612a2.7 2.7 0 0 0-.558.936 3.504 3.504 0 0 0-.198 1.197c0 .432.066.831.198 1.197a2.7 2.7 0 0 0 .558.936c.24.258.534.462.882.612.348.15.738.225 1.17.225.432 0 .822-.075 1.17-.225.348-.15.642-.354.882-.612a2.7 2.7 0 0 0 .558-.936c.132-.366.198-.765.198-1.197 0-.432-.066-.831-.198-1.197a2.7 2.7 0 0 0-.558-.936 2.583 2.583 0 0 0-.882-.612 2.927 2.927 0 0 0-1.17-.225zm6.606-.252a4.51 4.51 0 0 1 1.584-.945c.6-.21 1.2-.315 1.8-.315.624 0 1.161.078 1.611.234.45.156.819.366 1.107.63.288.264.501.567.639.909.138.342.207.699.207 1.071v4.356c0 .3.006.576.018.828.012.252.03.492.054.72h-1.44a15.6 15.6 0 0 1-.054-1.296h-.036c-.36.552-.786.942-1.278 1.17-.492.228-1.062.342-1.71.342-.396 0-.774-.054-1.134-.162a2.768 2.768 0 0 1-.945-.486 2.32 2.32 0 0 1-.639-.801 2.484 2.484 0 0 1-.234-1.107c0-.552.123-1.014.369-1.386a2.794 2.794 0 0 1 1.008-.909 4.866 4.866 0 0 1 1.494-.504c.57-.102 1.179-.153 1.827-.153h1.188v-.36a1.777 1.777 0 0 0-1.134-1.647 2.394 2.394 0 0 0-.9-.153 3.319 3.319 0 0 0-1.458.315c-.192.09-.366.195-.522.315-.156.12-.306.234-.45.342l-.972-1.008zm4.572 3.384c-.384 0-.777.021-1.179.063a4.608 4.608 0 0 0-1.098.243c-.33.12-.6.288-.81.504-.21.216-.315.492-.315.828 0 .492.165.846.495 1.062.33.216.777.324 1.341.324.444 0 .822-.075 1.134-.225.312-.15.564-.345.756-.585.192-.24.33-.507.414-.801.084-.294.126-.585.126-.873v-.54H438zm3.708-4.428h1.872l2.538 6.66h.036l2.412-6.66h1.746l-4.05 10.368c-.144.372-.294.711-.45 1.017a3.064 3.064 0 0 1-.558.783 2.257 2.257 0 0 1-.783.504c-.306.12-.681.18-1.125.18-.24 0-.483-.015-.729-.045a2.65 2.65 0 0 1-.711-.189l.198-1.476c.324.132.648.198.972.198.252 0 .465-.033.639-.099a1.26 1.26 0 0 0 .45-.288c.126-.126.231-.273.315-.441.084-.168.168-.36.252-.576l.522-1.35-3.546-8.586zm10.026 0h1.512v1.332h.036c.036-.12.129-.27.279-.45.15-.18.342-.351.576-.513.234-.162.51-.3.828-.414a3.101 3.101 0 0 1 1.053-.171c.636 0 1.17.132 1.602.396.432.264.786.66 1.062 1.188a2.73 2.73 0 0 1 1.17-1.188 3.266 3.266 0 0 1 1.53-.396c.66 0 1.2.108 1.62.324.42.216.75.501.99.855s.405.756.495 1.206c.09.45.135.915.135 1.395V116h-1.62v-4.752c0-.324-.021-.636-.063-.936a2.163 2.163 0 0 0-.261-.792 1.486 1.486 0 0 0-.558-.549c-.24-.138-.558-.207-.954-.207-.78 0-1.338.24-1.674.72-.336.48-.504 1.098-.504 1.854V116h-1.62v-4.464c0-.408-.021-.78-.063-1.116a2.617 2.617 0 0 0-.252-.873 1.39 1.39 0 0 0-.54-.576c-.234-.138-.549-.207-.945-.207-.288 0-.567.057-.837.171a1.98 1.98 0 0 0-.711.513 2.49 2.49 0 0 0-.486.873c-.12.354-.18.771-.18 1.251V116h-1.62v-8.532zm16.56 4.86c0 .372.081.711.243 1.017.162.306.375.567.639.783.264.216.57.384.918.504.348.12.708.18 1.08.18.504 0 .942-.117 1.314-.351a4.23 4.23 0 0 0 1.026-.927l1.224.936c-.9 1.164-2.16 1.746-3.78 1.746a4.698 4.698 0 0 1-1.827-.342 3.978 3.978 0 0 1-1.386-.945 4.191 4.191 0 0 1-.873-1.422 5.026 5.026 0 0 1-.306-1.773c0-.636.111-1.227.333-1.773.222-.546.528-1.02.918-1.422a4.19 4.19 0 0 1 1.395-.945 4.489 4.489 0 0 1 1.764-.342c.756 0 1.395.132 1.917.396s.951.609 1.287 1.035c.336.426.579.906.729 1.44.15.534.225 1.077.225 1.629v.576h-6.84zm5.112-1.296a3.417 3.417 0 0 0-.171-.99 2.178 2.178 0 0 0-.459-.783 2.115 2.115 0 0 0-.765-.522 2.799 2.799 0 0 0-1.071-.189 2.653 2.653 0 0 0-2.457 1.611 2.203 2.203 0 0 0-.189.873h5.112zm3.672-3.564h1.62v1.314h.036c.204-.456.558-.825 1.062-1.107.504-.282 1.086-.423 1.746-.423.408 0 .801.063 1.179.189s.708.321.99.585c.282.264.507.603.675 1.017.168.414.252.903.252 1.467V116h-1.62v-5.04c0-.396-.054-.735-.162-1.017a1.858 1.858 0 0 0-.432-.684c-.18-.174-.387-.3-.621-.378a2.29 2.29 0 0 0-.729-.117c-.336 0-.648.054-.936.162a1.95 1.95 0 0 0-.756.513 2.422 2.422 0 0 0-.504.891c-.12.36-.18.786-.18 1.278V116h-1.62v-8.532zm14.58 1.404h-2.322v3.87c0 .24.006.477.018.711.012.234.057.444.135.63.078.186.198.336.36.45.162.114.399.171.711.171.192 0 .39-.018.594-.054.204-.036.39-.102.558-.198v1.476a2.114 2.114 0 0 1-.747.225 5.607 5.607 0 0 1-.711.063c-.624 0-1.107-.087-1.449-.261-.342-.174-.594-.399-.756-.675a2.183 2.183 0 0 1-.288-.927c-.03-.342-.045-.687-.045-1.035v-4.446h-1.872v-1.404h1.872v-2.394h1.62v2.394h2.322v1.404zm7.092-1.404h1.62v1.314h.036c.108-.228.252-.435.432-.621s.381-.345.603-.477c.222-.132.465-.237.729-.315.264-.078.528-.117.792-.117s.504.036.72.108l-.072 1.746a4.7 4.7 0 0 0-.396-.09 2.21 2.21 0 0 0-.396-.036c-.792 0-1.398.222-1.818.666-.42.444-.63 1.134-.63 2.07V116h-1.62v-8.532zm7.884 4.86c0 .372.081.711.243 1.017.162.306.375.567.639.783.264.216.57.384.918.504.348.12.708.18 1.08.18.504 0 .942-.117 1.314-.351a4.23 4.23 0 0 0 1.026-.927l1.224.936c-.9 1.164-2.16 1.746-3.78 1.746a4.698 4.698 0 0 1-1.827-.342 3.978 3.978 0 0 1-1.386-.945 4.191 4.191 0 0 1-.873-1.422 5.026 5.026 0 0 1-.306-1.773c0-.636.111-1.227.333-1.773.222-.546.528-1.02.918-1.422a4.19 4.19 0 0 1 1.395-.945 4.489 4.489 0 0 1 1.764-.342c.756 0 1.395.132 1.917.396s.951.609 1.287 1.035c.336.426.579.906.729 1.44.15.534.225 1.077.225 1.629v.576h-6.84zm5.112-1.296a3.417 3.417 0 0 0-.171-.99 2.178 2.178 0 0 0-.459-.783 2.115 2.115 0 0 0-.765-.522 2.799 2.799 0 0 0-1.071-.189 2.653 2.653 0 0 0-2.457 1.611 2.203 2.203 0 0 0-.189.873h5.112zm9.774-1.296a3.4 3.4 0 0 0-.945-.711c-.33-.162-.723-.243-1.179-.243-.444 0-.831.081-1.161.243-.33.162-.606.384-.828.666-.222.282-.39.606-.504.972a3.821 3.821 0 0 0-.171 1.143c0 .396.066.771.198 1.125s.318.663.558.927c.24.264.528.471.864.621.336.15.714.225 1.134.225.456 0 .846-.081 1.17-.243.324-.162.624-.399.9-.711l1.152 1.152c-.42.468-.909.804-1.467 1.008a5.123 5.123 0 0 1-1.773.306c-.66 0-1.263-.108-1.809-.324a4.178 4.178 0 0 1-1.413-.909 4.017 4.017 0 0 1-.918-1.404 4.877 4.877 0 0 1-.324-1.809c0-.66.108-1.266.324-1.818a4.159 4.159 0 0 1 .909-1.422c.39-.396.858-.705 1.404-.927a4.81 4.81 0 0 1 1.827-.333c.624 0 1.221.111 1.791.333.57.222 1.065.561 1.485 1.017l-1.224 1.116zm3.798 2.592c0 .372.081.711.243 1.017.162.306.375.567.639.783.264.216.57.384.918.504.348.12.708.18 1.08.18.504 0 .942-.117 1.314-.351a4.23 4.23 0 0 0 1.026-.927l1.224.936c-.9 1.164-2.16 1.746-3.78 1.746a4.698 4.698 0 0 1-1.827-.342 3.978 3.978 0 0 1-1.386-.945 4.191 4.191 0 0 1-.873-1.422 5.026 5.026 0 0 1-.306-1.773c0-.636.111-1.227.333-1.773.222-.546.528-1.02.918-1.422a4.19 4.19 0 0 1 1.395-.945 4.489 4.489 0 0 1 1.764-.342c.756 0 1.395.132 1.917.396s.951.609 1.287 1.035c.336.426.579.906.729 1.44.15.534.225 1.077.225 1.629v.576h-6.84zm5.112-1.296a3.417 3.417 0 0 0-.171-.99 2.178 2.178 0 0 0-.459-.783 2.115 2.115 0 0 0-.765-.522 2.799 2.799 0 0 0-1.071-.189 2.653 2.653 0 0 0-2.457 1.611 2.203 2.203 0 0 0-.189.873h5.112zm3.798-3.564h1.62V116h-1.62v-8.532zm-.378-3.06c0-.324.117-.603.351-.837.234-.234.513-.351.837-.351.324 0 .603.117.837.351.234.234.351.513.351.837 0 .324-.117.603-.351.837a1.143 1.143 0 0 1-.837.351c-.324 0-.603-.117-.837-.351a1.143 1.143 0 0 1-.351-.837zm4.572 3.06h1.62v1.224h.036c.312-.456.741-.81 1.287-1.062a3.976 3.976 0 0 1 1.683-.378c.66 0 1.257.114 1.791.342.534.228.99.546 1.368.954.378.408.669.885.873 1.431.204.546.306 1.131.306 1.755 0 .636-.102 1.227-.306 1.773a4.191 4.191 0 0 1-.873 1.422 4.018 4.018 0 0 1-1.368.945 4.518 4.518 0 0 1-1.791.342 3.958 3.958 0 0 1-1.728-.387c-.54-.258-.954-.609-1.242-1.053h-.036v6.3h-1.62v-13.608zm4.428 1.296c-.432 0-.822.075-1.17.225-.348.15-.642.354-.882.612a2.7 2.7 0 0 0-.558.936 3.504 3.504 0 0 0-.198 1.197c0 .432.066.831.198 1.197a2.7 2.7 0 0 0 .558.936c.24.258.534.462.882.612.348.15.738.225 1.17.225.432 0 .822-.075 1.17-.225.348-.15.642-.354.882-.612a2.7 2.7 0 0 0 .558-.936c.132-.366.198-.765.198-1.197 0-.432-.066-.831-.198-1.197a2.7 2.7 0 0 0-.558-.936 2.583 2.583 0 0 0-.882-.612 2.927 2.927 0 0 0-1.17-.225zm11.142.108h-2.322v3.87c0 .24.006.477.018.711.012.234.057.444.135.63.078.186.198.336.36.45.162.114.399.171.711.171.192 0 .39-.018.594-.054.204-.036.39-.102.558-.198v1.476a2.114 2.114 0 0 1-.747.225 5.607 5.607 0 0 1-.711.063c-.624 0-1.107-.087-1.449-.261-.342-.174-.594-.399-.756-.675a2.183 2.183 0 0 1-.288-.927c-.03-.342-.045-.687-.045-1.035v-4.446h-1.872v-1.404h1.872v-2.394h1.62v2.394h2.322v1.404z" id="Waitfororderconfirmationafterwereceivepaymentreceipt" fill="#F57C23" fill-rule="nonzero"></path>
          <path d="M763.302 79.256h4.482c.816 0 1.488.111 2.016.333.528.222.945.504 1.251.846.306.342.519.726.639 1.152.12.426.18.837.18 1.233a3.332 3.332 0 0 1-.837 2.205c-.27.306-.6.564-.99.774-.39.21-.825.339-1.305.387L772.356 92h-2.16l-3.24-5.616h-1.926V92h-1.728V79.256zm1.728 5.616h2.268c.336 0 .669-.027.999-.081.33-.054.624-.153.882-.297s.465-.351.621-.621c.156-.27.234-.621.234-1.053 0-.432-.078-.783-.234-1.053a1.625 1.625 0 0 0-.621-.621 2.684 2.684 0 0 0-.882-.297 6.176 6.176 0 0 0-.999-.081h-2.268v4.104zm10.08 3.456c0 .372.081.711.243 1.017.162.306.375.567.639.783.264.216.57.384.918.504.348.12.708.18 1.08.18.504 0 .942-.117 1.314-.351a4.23 4.23 0 0 0 1.026-.927l1.224.936c-.9 1.164-2.16 1.746-3.78 1.746a4.698 4.698 0 0 1-1.827-.342 3.978 3.978 0 0 1-1.386-.945 4.191 4.191 0 0 1-.873-1.422 5.026 5.026 0 0 1-.306-1.773c0-.636.111-1.227.333-1.773.222-.546.528-1.02.918-1.422a4.19 4.19 0 0 1 1.395-.945 4.489 4.489 0 0 1 1.764-.342c.756 0 1.395.132 1.917.396s.951.609 1.287 1.035c.336.426.579.906.729 1.44.15.534.225 1.077.225 1.629v.576h-6.84zm5.112-1.296a3.417 3.417 0 0 0-.171-.99 2.178 2.178 0 0 0-.459-.783 2.115 2.115 0 0 0-.765-.522 2.799 2.799 0 0 0-1.071-.189 2.653 2.653 0 0 0-2.457 1.611 2.203 2.203 0 0 0-.189.873h5.112zm9.774-1.296a3.4 3.4 0 0 0-.945-.711c-.33-.162-.723-.243-1.179-.243-.444 0-.831.081-1.161.243-.33.162-.606.384-.828.666-.222.282-.39.606-.504.972a3.821 3.821 0 0 0-.171 1.143c0 .396.066.771.198 1.125s.318.663.558.927c.24.264.528.471.864.621.336.15.714.225 1.134.225.456 0 .846-.081 1.17-.243.324-.162.624-.399.9-.711l1.152 1.152c-.42.468-.909.804-1.467 1.008a5.123 5.123 0 0 1-1.773.306c-.66 0-1.263-.108-1.809-.324a4.178 4.178 0 0 1-1.413-.909 4.017 4.017 0 0 1-.918-1.404 4.877 4.877 0 0 1-.324-1.809c0-.66.108-1.266.324-1.818a4.159 4.159 0 0 1 .909-1.422c.39-.396.858-.705 1.404-.927a4.81 4.81 0 0 1 1.827-.333c.624 0 1.221.111 1.791.333.57.222 1.065.561 1.485 1.017l-1.224 1.116zm3.798 2.592c0 .372.081.711.243 1.017.162.306.375.567.639.783.264.216.57.384.918.504.348.12.708.18 1.08.18.504 0 .942-.117 1.314-.351a4.23 4.23 0 0 0 1.026-.927l1.224.936c-.9 1.164-2.16 1.746-3.78 1.746a4.698 4.698 0 0 1-1.827-.342 3.978 3.978 0 0 1-1.386-.945 4.191 4.191 0 0 1-.873-1.422 5.026 5.026 0 0 1-.306-1.773c0-.636.111-1.227.333-1.773.222-.546.528-1.02.918-1.422a4.19 4.19 0 0 1 1.395-.945 4.489 4.489 0 0 1 1.764-.342c.756 0 1.395.132 1.917.396s.951.609 1.287 1.035c.336.426.579.906.729 1.44.15.534.225 1.077.225 1.629v.576h-6.84zm5.112-1.296a3.417 3.417 0 0 0-.171-.99 2.178 2.178 0 0 0-.459-.783 2.115 2.115 0 0 0-.765-.522 2.799 2.799 0 0 0-1.071-.189 2.653 2.653 0 0 0-2.457 1.611 2.203 2.203 0 0 0-.189.873h5.112zm3.798-3.564h1.62V92h-1.62v-8.532zm-.378-3.06c0-.324.117-.603.351-.837.234-.234.513-.351.837-.351.324 0 .603.117.837.351.234.234.351.513.351.837 0 .324-.117.603-.351.837a1.143 1.143 0 0 1-.837.351c-.324 0-.603-.117-.837-.351a1.143 1.143 0 0 1-.351-.837zm3.546 3.06h1.872l2.556 6.534 2.448-6.534h1.728L811.128 92h-1.782l-3.474-8.532zm11.25 4.86c0 .372.081.711.243 1.017.162.306.375.567.639.783.264.216.57.384.918.504.348.12.708.18 1.08.18.504 0 .942-.117 1.314-.351a4.23 4.23 0 0 0 1.026-.927l1.224.936c-.9 1.164-2.16 1.746-3.78 1.746a4.698 4.698 0 0 1-1.827-.342 3.978 3.978 0 0 1-1.386-.945 4.191 4.191 0 0 1-.873-1.422 5.026 5.026 0 0 1-.306-1.773c0-.636.111-1.227.333-1.773.222-.546.528-1.02.918-1.422a4.19 4.19 0 0 1 1.395-.945 4.489 4.489 0 0 1 1.764-.342c.756 0 1.395.132 1.917.396s.951.609 1.287 1.035c.336.426.579.906.729 1.44.15.534.225 1.077.225 1.629v.576h-6.84zm5.112-1.296a3.417 3.417 0 0 0-.171-.99 2.178 2.178 0 0 0-.459-.783 2.115 2.115 0 0 0-.765-.522 2.799 2.799 0 0 0-1.071-.189 2.653 2.653 0 0 0-2.457 1.611 2.203 2.203 0 0 0-.189.873h5.112zM839.46 92h-1.62v-1.224h-.036c-.312.456-.741.81-1.287 1.062a3.976 3.976 0 0 1-1.683.378c-.66 0-1.257-.114-1.791-.342a3.958 3.958 0 0 1-1.368-.954 4.31 4.31 0 0 1-.873-1.422 4.952 4.952 0 0 1-.306-1.764c0-.636.102-1.227.306-1.773.204-.546.495-1.02.873-1.422a4.018 4.018 0 0 1 1.368-.945 4.518 4.518 0 0 1 1.791-.342c.612 0 1.188.129 1.728.387s.954.609 1.242 1.053h.036v-6.3h1.62V92zm-4.428-1.296c.432 0 .822-.075 1.17-.225.348-.15.642-.354.882-.612a2.7 2.7 0 0 0 .558-.936c.132-.366.198-.765.198-1.197 0-.432-.066-.831-.198-1.197a2.7 2.7 0 0 0-.558-.936 2.583 2.583 0 0 0-.882-.612 2.927 2.927 0 0 0-1.17-.225c-.432 0-.822.075-1.17.225-.348.15-.642.354-.882.612a2.7 2.7 0 0 0-.558.936 3.504 3.504 0 0 0-.198 1.197c0 .432.066.831.198 1.197a2.7 2.7 0 0 0 .558.936c.24.258.534.462.882.612.348.15.738.225 1.17.225zm8.1-2.376c0 .372.081.711.243 1.017.162.306.375.567.639.783.264.216.57.384.918.504.348.12.708.18 1.08.18.504 0 .942-.117 1.314-.351a4.23 4.23 0 0 0 1.026-.927l1.224.936c-.9 1.164-2.16 1.746-3.78 1.746a4.698 4.698 0 0 1-1.827-.342 3.978 3.978 0 0 1-1.386-.945 4.191 4.191 0 0 1-.873-1.422 5.026 5.026 0 0 1-.306-1.773c0-.636.111-1.227.333-1.773.222-.546.528-1.02.918-1.422a4.19 4.19 0 0 1 1.395-.945 4.489 4.489 0 0 1 1.764-.342c.756 0 1.395.132 1.917.396s.951.609 1.287 1.035c.336.426.579.906.729 1.44.15.534.225 1.077.225 1.629v.576h-6.84zm5.112-1.296a3.417 3.417 0 0 0-.171-.99 2.178 2.178 0 0 0-.459-.783 2.115 2.115 0 0 0-.765-.522 2.799 2.799 0 0 0-1.071-.189 2.653 2.653 0 0 0-2.457 1.611 2.203 2.203 0 0 0-.189.873h5.112zm3.798-8.64h1.62V92h-1.62V78.392zm4.32 5.076h1.62V92h-1.62v-8.532zm-.378-3.06c0-.324.117-.603.351-.837.234-.234.513-.351.837-.351.324 0 .603.117.837.351.234.234.351.513.351.837 0 .324-.117.603-.351.837a1.143 1.143 0 0 1-.837.351c-.324 0-.603-.117-.837-.351a1.143 1.143 0 0 1-.351-.837zm3.546 3.06h1.872l2.556 6.534 2.448-6.534h1.728L864.786 92h-1.782l-3.474-8.532zm11.25 4.86c0 .372.081.711.243 1.017.162.306.375.567.639.783.264.216.57.384.918.504.348.12.708.18 1.08.18.504 0 .942-.117 1.314-.351a4.23 4.23 0 0 0 1.026-.927l1.224.936c-.9 1.164-2.16 1.746-3.78 1.746a4.698 4.698 0 0 1-1.827-.342 3.978 3.978 0 0 1-1.386-.945 4.191 4.191 0 0 1-.873-1.422 5.026 5.026 0 0 1-.306-1.773c0-.636.111-1.227.333-1.773.222-.546.528-1.02.918-1.422a4.19 4.19 0 0 1 1.395-.945 4.489 4.489 0 0 1 1.764-.342c.756 0 1.395.132 1.917.396s.951.609 1.287 1.035c.336.426.579.906.729 1.44.15.534.225 1.077.225 1.629v.576h-6.84zm5.112-1.296a3.417 3.417 0 0 0-.171-.99 2.178 2.178 0 0 0-.459-.783 2.115 2.115 0 0 0-.765-.522 2.799 2.799 0 0 0-1.071-.189 2.653 2.653 0 0 0-2.457 1.611 2.203 2.203 0 0 0-.189.873h5.112zm3.672-3.564h1.62v1.314h.036c.108-.228.252-.435.432-.621s.381-.345.603-.477c.222-.132.465-.237.729-.315.264-.078.528-.117.792-.117s.504.036.72.108l-.072 1.746a4.7 4.7 0 0 0-.396-.09 2.21 2.21 0 0 0-.396-.036c-.792 0-1.398.222-1.818.666-.42.444-.63 1.134-.63 2.07V92h-1.62v-8.532zm5.634 0h1.872l2.538 6.66h.036l2.412-6.66h1.746l-4.05 10.368c-.144.372-.294.711-.45 1.017a3.064 3.064 0 0 1-.558.783 2.257 2.257 0 0 1-.783.504c-.306.12-.681.18-1.125.18-.24 0-.483-.015-.729-.045a2.65 2.65 0 0 1-.711-.189l.198-1.476c.324.132.648.198.972.198.252 0 .465-.033.639-.099a1.26 1.26 0 0 0 .45-.288c.126-.126.231-.273.315-.441.084-.168.168-.36.252-.576l.522-1.35-3.546-8.586zm-179.244 18.924h1.62V116h-1.62v-13.608zm5.418 9.936c0 .372.081.711.243 1.017.162.306.375.567.639.783.264.216.57.384.918.504.348.12.708.18 1.08.18.504 0 .942-.117 1.314-.351a4.23 4.23 0 0 0 1.026-.927l1.224.936c-.9 1.164-2.16 1.746-3.78 1.746a4.698 4.698 0 0 1-1.827-.342 3.978 3.978 0 0 1-1.386-.945 4.191 4.191 0 0 1-.873-1.422 5.026 5.026 0 0 1-.306-1.773c0-.636.111-1.227.333-1.773.222-.546.528-1.02.918-1.422a4.19 4.19 0 0 1 1.395-.945 4.489 4.489 0 0 1 1.764-.342c.756 0 1.395.132 1.917.396s.951.609 1.287 1.035c.336.426.579.906.729 1.44.15.534.225 1.077.225 1.629v.576h-6.84zm5.112-1.296a3.417 3.417 0 0 0-.171-.99 2.178 2.178 0 0 0-.459-.783 2.115 2.115 0 0 0-.765-.522 2.799 2.799 0 0 0-1.071-.189 2.653 2.653 0 0 0-2.457 1.611 2.203 2.203 0 0 0-.189.873h5.112zm8.208-1.422a2.483 2.483 0 0 0-.711-.603c-.282-.162-.627-.243-1.035-.243-.384 0-.717.081-.999.243-.282.162-.423.399-.423.711 0 .252.081.456.243.612.162.156.354.282.576.378.222.096.459.168.711.216l.648.126c.348.084.675.186.981.306.306.12.57.276.792.468.222.192.396.426.522.702.126.276.189.612.189 1.008 0 .48-.102.891-.306 1.233a2.58 2.58 0 0 1-.792.837 3.333 3.333 0 0 1-1.107.468 5.52 5.52 0 0 1-1.251.144c-.708 0-1.329-.108-1.863-.324-.534-.216-1.011-.612-1.431-1.188l1.224-1.008c.264.264.558.498.882.702.324.204.72.306 1.188.306.204 0 .411-.021.621-.063.21-.042.396-.108.558-.198.162-.09.294-.204.396-.342a.781.781 0 0 0 .153-.477.822.822 0 0 0-.225-.594 1.63 1.63 0 0 0-.54-.369 3.93 3.93 0 0 0-.666-.216 21.907 21.907 0 0 0-.621-.135c-.348-.084-.678-.18-.99-.288a3.01 3.01 0 0 1-.828-.432 1.996 1.996 0 0 1-.576-.684c-.144-.276-.216-.618-.216-1.026 0-.444.093-.831.279-1.161a2.48 2.48 0 0 1 .738-.819 3.338 3.338 0 0 1 1.044-.486 4.399 4.399 0 0 1 2.835.162c.528.216.948.576 1.26 1.08l-1.26.954zm7.992 0a2.483 2.483 0 0 0-.711-.603c-.282-.162-.627-.243-1.035-.243-.384 0-.717.081-.999.243-.282.162-.423.399-.423.711 0 .252.081.456.243.612.162.156.354.282.576.378.222.096.459.168.711.216l.648.126c.348.084.675.186.981.306.306.12.57.276.792.468.222.192.396.426.522.702.126.276.189.612.189 1.008 0 .48-.102.891-.306 1.233a2.58 2.58 0 0 1-.792.837 3.333 3.333 0 0 1-1.107.468 5.52 5.52 0 0 1-1.251.144c-.708 0-1.329-.108-1.863-.324-.534-.216-1.011-.612-1.431-1.188l1.224-1.008c.264.264.558.498.882.702.324.204.72.306 1.188.306.204 0 .411-.021.621-.063.21-.042.396-.108.558-.198.162-.09.294-.204.396-.342a.781.781 0 0 0 .153-.477.822.822 0 0 0-.225-.594 1.63 1.63 0 0 0-.54-.369 3.93 3.93 0 0 0-.666-.216 21.907 21.907 0 0 0-.621-.135c-.348-.084-.678-.18-.99-.288a3.01 3.01 0 0 1-.828-.432 1.996 1.996 0 0 1-.576-.684c-.144-.276-.216-.618-.216-1.026 0-.444.093-.831.279-1.161a2.48 2.48 0 0 1 .738-.819 3.338 3.338 0 0 1 1.044-.486 4.399 4.399 0 0 1 2.835.162c.528.216.948.576 1.26 1.08l-1.26.954zm13.032-.738h-2.322v3.87c0 .24.006.477.018.711.012.234.057.444.135.63.078.186.198.336.36.45.162.114.399.171.711.171.192 0 .39-.018.594-.054.204-.036.39-.102.558-.198v1.476a2.114 2.114 0 0 1-.747.225 5.607 5.607 0 0 1-.711.063c-.624 0-1.107-.087-1.449-.261-.342-.174-.594-.399-.756-.675a2.183 2.183 0 0 1-.288-.927c-.03-.342-.045-.687-.045-1.035v-4.446h-1.872v-1.404h1.872v-2.394h1.62v2.394h2.322v1.404zm2.088-6.48h1.62v6.39h.036c.204-.456.558-.825 1.062-1.107.504-.282 1.086-.423 1.746-.423.408 0 .801.063 1.179.189s.708.321.99.585c.282.264.507.603.675 1.017.168.414.252.903.252 1.467V116h-1.62v-5.04c0-.396-.054-.735-.162-1.017a1.858 1.858 0 0 0-.432-.684c-.18-.174-.387-.3-.621-.378a2.29 2.29 0 0 0-.729-.117c-.336 0-.648.054-.936.162a1.95 1.95 0 0 0-.756.513 2.422 2.422 0 0 0-.504.891c-.12.36-.18.786-.18 1.278V116h-1.62v-13.608zm10.044 6.12a4.51 4.51 0 0 1 1.584-.945c.6-.21 1.2-.315 1.8-.315.624 0 1.161.078 1.611.234.45.156.819.366 1.107.63.288.264.501.567.639.909.138.342.207.699.207 1.071v4.356c0 .3.006.576.018.828.012.252.03.492.054.72h-1.44a15.6 15.6 0 0 1-.054-1.296h-.036c-.36.552-.786.942-1.278 1.17-.492.228-1.062.342-1.71.342-.396 0-.774-.054-1.134-.162a2.768 2.768 0 0 1-.945-.486 2.32 2.32 0 0 1-.639-.801 2.484 2.484 0 0 1-.234-1.107c0-.552.123-1.014.369-1.386a2.794 2.794 0 0 1 1.008-.909 4.866 4.866 0 0 1 1.494-.504c.57-.102 1.179-.153 1.827-.153h1.188v-.36a1.777 1.777 0 0 0-1.134-1.647 2.394 2.394 0 0 0-.9-.153 3.319 3.319 0 0 0-1.458.315c-.192.09-.366.195-.522.315-.156.12-.306.234-.45.342l-.972-1.008zm4.572 3.384c-.384 0-.777.021-1.179.063a4.608 4.608 0 0 0-1.098.243c-.33.12-.6.288-.81.504-.21.216-.315.492-.315.828 0 .492.165.846.495 1.062.33.216.777.324 1.341.324.444 0 .822-.075 1.134-.225.312-.15.564-.345.756-.585.192-.24.33-.507.414-.801.084-.294.126-.585.126-.873v-.54h-.864zm4.734-4.428h1.62v1.314h.036c.204-.456.558-.825 1.062-1.107.504-.282 1.086-.423 1.746-.423.408 0 .801.063 1.179.189s.708.321.99.585c.282.264.507.603.675 1.017.168.414.252.903.252 1.467V116h-1.62v-5.04c0-.396-.054-.735-.162-1.017a1.858 1.858 0 0 0-.432-.684c-.18-.174-.387-.3-.621-.378a2.29 2.29 0 0 0-.729-.117c-.336 0-.648.054-.936.162a1.95 1.95 0 0 0-.756.513 2.422 2.422 0 0 0-.504.891c-.12.36-.18.786-.18 1.278V116h-1.62v-8.532zm14.616 6.696l5.112-5.076c.18-.168.354-.351.522-.549.168-.198.318-.405.45-.621a3.21 3.21 0 0 0 .315-.684 2.43 2.43 0 0 0 .117-.756 2.03 2.03 0 0 0-.171-.846 1.858 1.858 0 0 0-.468-.639 2.133 2.133 0 0 0-.702-.405 2.533 2.533 0 0 0-.855-.144c-.624 0-1.14.174-1.548.522-.408.348-.666.828-.774 1.44l-1.872-.162c.084-.564.249-1.053.495-1.467a3.551 3.551 0 0 1 2.178-1.647 5.719 5.719 0 0 1 1.539-.198c.552 0 1.071.075 1.557.225.486.15.912.372 1.278.666.366.294.654.66.864 1.098.21.438.315.951.315 1.539 0 .42-.063.813-.189 1.179a4.975 4.975 0 0 1-.495 1.035c-.204.324-.438.63-.702.918-.264.288-.54.57-.828.846l-4.194 4.05h6.408V116h-8.352v-1.836zm15.228-.972h-5.436v-1.764l5.076-8.172h2.088v8.424h1.8v1.512h-1.8V116h-1.728v-2.808zm0-7.884h-.036l-3.888 6.372h3.924v-6.372zm9.018 7.092h-4.428v-1.512h4.428v1.512zm1.854-10.008h1.62v6.39h.036c.204-.456.558-.825 1.062-1.107.504-.282 1.086-.423 1.746-.423.408 0 .801.063 1.179.189s.708.321.99.585c.282.264.507.603.675 1.017.168.414.252.903.252 1.467V116h-1.62v-5.04c0-.396-.054-.735-.162-1.017a1.858 1.858 0 0 0-.432-.684c-.18-.174-.387-.3-.621-.378a2.29 2.29 0 0 0-.729-.117c-.336 0-.648.054-.936.162a1.95 1.95 0 0 0-.756.513 2.422 2.422 0 0 0-.504.891c-.12.36-.18.786-.18 1.278V116h-1.62v-13.608zm11.322 9.342c0 .432.066.831.198 1.197a2.7 2.7 0 0 0 .558.936c.24.258.534.462.882.612.348.15.738.225 1.17.225.432 0 .822-.075 1.17-.225.348-.15.642-.354.882-.612a2.7 2.7 0 0 0 .558-.936c.132-.366.198-.765.198-1.197 0-.432-.066-.831-.198-1.197a2.7 2.7 0 0 0-.558-.936 2.583 2.583 0 0 0-.882-.612 2.927 2.927 0 0 0-1.17-.225c-.432 0-.822.075-1.17.225-.348.15-.642.354-.882.612a2.7 2.7 0 0 0-.558.936 3.504 3.504 0 0 0-.198 1.197zm-1.728 0c0-.624.117-1.206.351-1.746a4.494 4.494 0 0 1 2.403-2.385 4.518 4.518 0 0 1 1.782-.351 4.518 4.518 0 0 1 4.185 2.736c.234.54.351 1.122.351 1.746 0 .624-.117 1.209-.351 1.755a4.415 4.415 0 0 1-.963 1.422 4.57 4.57 0 0 1-3.222 1.305 4.57 4.57 0 0 1-3.222-1.305 4.415 4.415 0 0 1-.963-1.422 4.408 4.408 0 0 1-.351-1.755zM836.13 116h-1.62v-1.314h-.036c-.204.456-.558.825-1.062 1.107-.504.282-1.086.423-1.746.423-.42 0-.816-.063-1.188-.189a2.672 2.672 0 0 1-.981-.585 2.82 2.82 0 0 1-.675-1.017c-.168-.414-.252-.903-.252-1.467v-5.49h1.62v5.04c0 .396.054.735.162 1.017.108.282.252.51.432.684.18.174.387.3.621.378.234.078.477.117.729.117.336 0 .648-.054.936-.162a1.95 1.95 0 0 0 .756-.513c.216-.234.384-.531.504-.891s.18-.786.18-1.278v-4.392h1.62V116zm2.448-8.532h1.62v1.314h.036c.108-.228.252-.435.432-.621s.381-.345.603-.477c.222-.132.465-.237.729-.315.264-.078.528-.117.792-.117s.504.036.72.108l-.072 1.746a4.7 4.7 0 0 0-.396-.09 2.21 2.21 0 0 0-.396-.036c-.792 0-1.398.222-1.818.666-.42.444-.63 1.134-.63 2.07V116h-1.62v-8.532zm11.196 2.142a2.483 2.483 0 0 0-.711-.603c-.282-.162-.627-.243-1.035-.243-.384 0-.717.081-.999.243-.282.162-.423.399-.423.711 0 .252.081.456.243.612.162.156.354.282.576.378.222.096.459.168.711.216l.648.126c.348.084.675.186.981.306.306.12.57.276.792.468.222.192.396.426.522.702.126.276.189.612.189 1.008 0 .48-.102.891-.306 1.233a2.58 2.58 0 0 1-.792.837 3.333 3.333 0 0 1-1.107.468 5.52 5.52 0 0 1-1.251.144c-.708 0-1.329-.108-1.863-.324-.534-.216-1.011-.612-1.431-1.188l1.224-1.008c.264.264.558.498.882.702.324.204.72.306 1.188.306.204 0 .411-.021.621-.063.21-.042.396-.108.558-.198.162-.09.294-.204.396-.342a.781.781 0 0 0 .153-.477.822.822 0 0 0-.225-.594 1.63 1.63 0 0 0-.54-.369 3.93 3.93 0 0 0-.666-.216 21.907 21.907 0 0 0-.621-.135c-.348-.084-.678-.18-.99-.288a3.01 3.01 0 0 1-.828-.432 1.996 1.996 0 0 1-.576-.684c-.144-.276-.216-.618-.216-1.026 0-.444.093-.831.279-1.161a2.48 2.48 0 0 1 .738-.819 3.338 3.338 0 0 1 1.044-.486 4.399 4.399 0 0 1 2.835.162c.528.216.948.576 1.26 1.08l-1.26.954zm8.586-7.218h1.62V116h-1.62v-13.608zm4.23 6.12a4.51 4.51 0 0 1 1.584-.945c.6-.21 1.2-.315 1.8-.315.624 0 1.161.078 1.611.234.45.156.819.366 1.107.63.288.264.501.567.639.909.138.342.207.699.207 1.071v4.356c0 .3.006.576.018.828.012.252.03.492.054.72h-1.44a15.6 15.6 0 0 1-.054-1.296h-.036c-.36.552-.786.942-1.278 1.17-.492.228-1.062.342-1.71.342-.396 0-.774-.054-1.134-.162a2.768 2.768 0 0 1-.945-.486 2.32 2.32 0 0 1-.639-.801 2.484 2.484 0 0 1-.234-1.107c0-.552.123-1.014.369-1.386a2.794 2.794 0 0 1 1.008-.909 4.866 4.866 0 0 1 1.494-.504c.57-.102 1.179-.153 1.827-.153h1.188v-.36a1.777 1.777 0 0 0-1.134-1.647 2.394 2.394 0 0 0-.9-.153 3.319 3.319 0 0 0-1.458.315c-.192.09-.366.195-.522.315-.156.12-.306.234-.45.342l-.972-1.008zm4.572 3.384c-.384 0-.777.021-1.179.063a4.608 4.608 0 0 0-1.098.243c-.33.12-.6.288-.81.504-.21.216-.315.492-.315.828 0 .492.165.846.495 1.062.33.216.777.324 1.341.324.444 0 .822-.075 1.134-.225.312-.15.564-.345.756-.585.192-.24.33-.507.414-.801.084-.294.126-.585.126-.873v-.54h-.864zm9.306-3.024h-2.322v3.87c0 .24.006.477.018.711.012.234.057.444.135.63.078.186.198.336.36.45.162.114.399.171.711.171.192 0 .39-.018.594-.054.204-.036.39-.102.558-.198v1.476a2.114 2.114 0 0 1-.747.225 5.607 5.607 0 0 1-.711.063c-.624 0-1.107-.087-1.449-.261-.342-.174-.594-.399-.756-.675a2.183 2.183 0 0 1-.288-.927c-.03-.342-.045-.687-.045-1.035v-4.446h-1.872v-1.404h1.872v-2.394h1.62v2.394h2.322v1.404zm3.312 3.456c0 .372.081.711.243 1.017.162.306.375.567.639.783.264.216.57.384.918.504.348.12.708.18 1.08.18.504 0 .942-.117 1.314-.351a4.23 4.23 0 0 0 1.026-.927l1.224.936c-.9 1.164-2.16 1.746-3.78 1.746a4.698 4.698 0 0 1-1.827-.342 3.978 3.978 0 0 1-1.386-.945 4.191 4.191 0 0 1-.873-1.422 5.026 5.026 0 0 1-.306-1.773c0-.636.111-1.227.333-1.773.222-.546.528-1.02.918-1.422a4.19 4.19 0 0 1 1.395-.945 4.489 4.489 0 0 1 1.764-.342c.756 0 1.395.132 1.917.396s.951.609 1.287 1.035c.336.426.579.906.729 1.44.15.534.225 1.077.225 1.629v.576h-6.84zm5.112-1.296a3.417 3.417 0 0 0-.171-.99 2.178 2.178 0 0 0-.459-.783 2.115 2.115 0 0 0-.765-.522 2.799 2.799 0 0 0-1.071-.189 2.653 2.653 0 0 0-2.457 1.611 2.203 2.203 0 0 0-.189.873h5.112zm3.672-3.564h1.62v1.314h.036c.108-.228.252-.435.432-.621s.381-.345.603-.477c.222-.132.465-.237.729-.315.264-.078.528-.117.792-.117s.504.036.72.108l-.072 1.746a4.7 4.7 0 0 0-.396-.09 2.21 2.21 0 0 0-.396-.036c-.792 0-1.398.222-1.818.666-.42.444-.63 1.134-.63 2.07V116h-1.62v-8.532z" id="Receivedeliverylessthan24-hourslater" fill="#F57C23" fill-rule="nonzero"></path>
        </g>
        <path d="M21 127c8.24 0 15 6.655 15 15 0 8.24-6.76 15-15 15-8.345 0-15-6.76-15-15 0-8.345 6.655-15 15-15zm-9.054 20.408l2.678-2.557c.428-.533 1.285-.533 1.82 0l1.607 1.598c2.999-2.131 5.57-4.582 7.39-7.352l-1.607-1.598c-.535-.532-.535-1.385 0-1.811l2.57-2.663c.536-.533 1.393-.533 1.822 0l2.249 2.237c2.999 2.983-13.174 19.284-16.28 16.194l-2.249-2.237c-.428-.426-.428-1.279 0-1.811z" id="Shape" fill="#F57C23"></path>
        <path d="M424.997 145c-11.045.002-19.998 8.957-19.997 20.002.001 11.045 8.956 19.999 20 19.998 11.046 0 20-8.955 20-20a20 20 0 0 0-20.003-20zm-1.194 29.957l-3.998 3.982-3.998-3.982-3.534-3.517 4.006-3.984 3.535 3.52 14.51-14.46 4.01 3.981-14.53 14.46z" id="Shape" fill="#7ED321" fill-rule="nonzero"></path>
        <path d="M889.066 146.493c.575.36.934 1.01.934 1.73v18.613c0 1.226-.934 2.164-2.084 2.164h-19.832c-1.15 0-2.084-1.01-2.084-2.164v-20.127c0-.289.072-.505.144-.794l1.868-4.616c.36-.794 1.078-1.299 1.94-1.299h9.198c.43 0 .79.144 1.15.36l8.766 6.133zm-8.838 16.447c2.012-4.4-3.737-12.552-4.024-12.913-.216-.36-.79-.432-1.15 0-.288.361-5.892 8.44-3.88 12.913 1.652 3.607 7.473 3.535 9.054 0zm6.682-12.263c.719-1.082.431-2.597-.647-3.39l-6.107-4.185a2.356 2.356 0 0 0-3.306.721c-.718 1.155-.43 2.67.647 3.39l6.108 4.185a2.356 2.356 0 0 0 3.305-.721zm-14.443 11.686c-1.221-2.741 1.509-8.007 3.09-10.676 1.724 2.669 4.527 7.935 3.305 10.676-1.006 2.38-5.317 2.38-6.395 0zM876 135.931v2h-6.323c-.225 0-.451 0-.677.069v-2.069c0-.69.452-1.241 1.054-1.517.527-.207 1.355-.414 2.408-.414.828 0 1.656.138 2.484.483.602.207 1.054.827 1.054 1.448z" id="Combined-Shape" fill="#EA3601" fill-rule="nonzero"></path>
        <path d="M859.066 146.493c.575.36.934 1.01.934 1.73v18.613c0 1.226-.934 2.164-2.084 2.164h-19.832c-1.15 0-2.084-1.01-2.084-2.164v-20.127c0-.289.072-.505.144-.794l1.868-4.616c.36-.794 1.078-1.299 1.94-1.299h9.198c.43 0 .79.144 1.15.36l8.766 6.133zm-8.838 16.447c2.012-4.4-3.737-12.552-4.024-12.913-.216-.36-.79-.432-1.15 0-.288.361-5.892 8.44-3.88 12.913 1.652 3.607 7.473 3.535 9.054 0zm6.682-12.263c.719-1.082.431-2.597-.647-3.39l-6.107-4.185a2.356 2.356 0 0 0-3.306.721c-.718 1.155-.43 2.67.647 3.39l6.108 4.185a2.356 2.356 0 0 0 3.305-.721zm-14.443 11.686c-1.221-2.741 1.509-8.007 3.09-10.676 1.724 2.669 4.527 7.935 3.305 10.676-1.006 2.38-5.317 2.38-6.395 0zM846 135.931v2h-6.323c-.225 0-.451 0-.677.069v-2.069c0-.69.452-1.241 1.054-1.517.527-.207 1.355-.414 2.408-.414.828 0 1.656.138 2.484.483.602.207 1.054.827 1.054 1.448z" id="Combined-Shape-Copy" fill="#EA3601" fill-rule="nonzero"></path>
      </g>
    </g>
  </g>
</svg>
