<svg version="1.2" baseProfile="tiny" id="Layer_1" xmlns="http://www.w3.org/2000/svg" x="0" y="0" viewBox="0 0 788.2 213.69" xml:space="preserve"><path fill-rule="evenodd" fill="#ED2124" d="M15.52 94.03c.76-.97 1.27-1.77 1.93-2.43 2.21-2.2 4.29-1.94 5.85.75.66 1.14 1.29 2.36 1.64 3.62 1.31 4.62 2.57 9.26 3.71 13.93.7 2.86 1.13 5.79 1.68 8.69.5-.96.56-1.92.8-2.82 1-3.84 1.64-7.85 3.18-11.47 3.1-7.29 9.07-10.24 16.71-8.13 4.9 1.36 9.74 3.27 14.29 5.56 9.17 4.61 18.12 9.65 27.16 14.5.62.33 1.26.64 1.89.96.01-.5-.13-.72-.31-.89-7.02-6.6-12.82-14.22-18.28-22.1-1.35-1.96-2.35-4.44-2.65-6.79-.62-4.76 2.42-7.78 6.08-10.16 4.69-3.05 9.92-4.9 15.39-5.72 13.64-2.07 27.33-3.86 40.99-5.77 2.66-.37 5.33-.76 7.99-1.14-.24-.41-.46-.49-.68-.5-13.38-.35-26.7-1.4-39.93-3.49-4.37-.69-8.75-1.47-12.99-2.68-3.85-1.1-4.4-3.63-1.6-6.51 1.75-1.8 3.7-3.57 5.88-4.76 7.22-3.94 14.58-7.62 21.89-11.39.62-.32 1.27-.61 1.9-.91-.5-.31-.87-.32-1.22-.23-13.17 3.65-26.33 7.32-39.5 10.96-.86.24-1.78.26-2.67.39-.1-.18-.2-.37-.3-.55 2.9-4.74 7.63-7.79 11.32-11.84-.7.15-1.33.4-1.93.7-8.47 4.16-16.93 8.34-25.42 12.46-1.24.6-2.63.91-3.95 1.36l-.43-.61c.83-1.32 1.67-2.64 2.57-4.07-17.11 5.69-41.55 36.1-40.99 51.08zm15.35 82.67c-1.83-8.91-3.56-18.76-5.95-28.45-1.82-7.41-4.29-14.69-6.85-21.89-1.02-2.86-2.78-5.57-4.68-7.98-2.78-3.53-6.14-3.42-8.9.11-1.58 2.02-2.77 4.35-4.5 6.53.67-3.8 1.16-7.64 2.03-11.39C5.88 96.92 13.7 82.12 24.08 68.59c14.58-19.02 35.06-35.02 56.4-46.72-.52.69-.78 1.05-1.05 1.39-1.35 1.67-2.81 3.27-4.02 5.05-.46.67-.33 1.73-.47 2.62.84.12 1.74.5 2.5.31 2.02-.5 4.09-1.02 5.94-1.92 9.61-4.71 19.23-9.4 28.7-14.39 8.52-4.49 16.84-9.35 25.25-14.04.31-.18.63-.35 1.14-.31-.45.47-.91.93-1.35 1.42-4.08 4.52-8.22 8.97-12.18 13.59-1.21 1.41-2.11 3.18-2.82 4.92-1 2.46.09 4.08 2.74 4.04 1.94-.03 3.91-.4 5.79-.93 27.84-7.8 55.67-15.66 83.51-23.5.3-.08.6-.14 1.03.07-.55.26-1.09.52-1.65.77-14.64 6.56-29.14 13.4-42.7 22.02-4.53 2.88-8.86 6.15-13.01 9.55-2.17 1.78-4.04 4.07-5.55 6.44-2.58 4.04-1.69 7.69 2.54 9.92a36.65 36.65 0 0 0 9.41 3.39c15.87 3.35 31.88 5.93 48.03 7.39 19.12 1.74 38.28 3.07 57.42 4.58.12.01.24.06.56.15-7.95.4-15.71.71-23.46 1.19-13.54.84-27.08 1.63-40.6 2.72-14.4 1.17-28.67 3.31-42.71 6.83-8.31 2.09-16.47 4.63-24.02 8.77-2.93 1.61-5.8 3.43-8.4 5.53-9.44 7.61-12.25 17.5-8.01 28.88 1.42 3.81 3.33 7.57 5.7 10.87 11.25 15.68 23.16 30.84 36.96 44.41.99.98 2.02 1.91 2.91 3.07-.57-.3-1.13-.6-1.7-.9-23.61-12.55-47.14-25.24-70.86-37.58-9.67-5.03-20.13-8.03-31.05-8.82-11.97-.87-21.22 3.85-27.2 14.45-3.58 6.34-5.24 13.29-6.03 20.44-.49 4.37-.65 8.81-.9 12.44zm558.62-35.05c-.49-.12-.72-.23-.96-.23-5.07 0-10.15-.04-15.22.06-1.16.02-2.56.23-3.41.9-.85.67-1.42 2.01-1.54 3.11-.04.39 1.58 1.37 2.46 1.39 5.2.15 10.4.12 15.6.09.47 0 1.21-.3 1.37-.66.66-1.48 1.13-3.04 1.7-4.66zm29.41-17.39c-2.21 6.34-4.38 12.54-6.53 18.75-2.06 5.92-4.11 11.83-6.17 17.75-.95 2.71-1.88 3.39-4.76 3.39-13.32.01-26.63.1-39.95-.08-3.17-.04-6.46-.62-9.47-1.63-5.65-1.9-8.08-6.44-8.41-12.15-.4-6.82 2.28-12.52 6.98-17.25 5.42-5.45 12.24-8.34 19.79-8.54 15.97-.42 31.95-.33 47.92-.44.12 0 .23.07.6.2zm-153.57 17.36c-.63-.11-.94-.2-1.24-.2-4.94 0-9.88-.01-14.83.04-.94.01-1.9.2-2.79.49-1.5.5-2.59 1.5-2.44 3.2.16 1.85 1.75 1.8 3.04 1.82 5 .06 10.01.05 15.02.02.5 0 1.3-.2 1.46-.54.68-1.53 1.17-3.14 1.78-4.83zm29.4-17.46c-2.12 6.13-4.18 12.1-6.26 18.06-2.14 6.16-4.29 12.31-6.44 18.46-.99 2.83-1.89 3.47-4.9 3.47-13.19 0-26.39.09-39.58-.07-3.12-.04-6.34-.54-9.31-1.48-5.65-1.77-8.3-6.1-8.79-11.87-.82-9.74 5.57-19.32 16.01-23.76 5.05-2.15 10.41-2.82 15.8-2.87 14.21-.14 28.41-.06 42.62-.07.19 0 .37.06.85.13z"/><path fill-rule="evenodd" fill="#ED2124" d="M243.17 141.54c-5.94 0-11.55-.01-17.17.02-.61 0-1.24.23-1.83.45-1.5.56-2.56 1.63-2.33 3.27.22 1.61 1.72 1.68 2.99 1.69 5.06.04 10.12.06 15.18 0 .54-.01 1.35-.47 1.57-.93.63-1.36 1.02-2.82 1.59-4.5zm29.42-17.43c-.47 1.37-.9 2.6-1.33 3.84-3.81 10.93-7.62 21.87-11.43 32.8-.96 2.75-1.85 3.4-4.74 3.4-13.32 0-26.63.11-39.95-.09-3.29-.05-6.71-.69-9.81-1.79-6.4-2.27-8.75-8.28-8.01-15.02 1.17-10.64 9.18-19.11 20.38-21.66 4.05-.92 8.26-1.43 12.41-1.49 13.69-.18 27.39-.08 41.09-.08.38.01.75.05 1.39.09zm32.4.26c8.81 0 17.63-.09 26.44.06 2.23.04 4.53.63 6.66 1.36 6.13 2.11 9.04 7.2 8 13.58-2.22 13.6-11.51 22.55-25.17 24.06-3.9.43-7.84.66-11.76.69-11.23.09-22.46.03-33.69.03-.57 0-1.14.02-1.71-.01-3.3-.2-4.3-1.64-3.26-4.76s2.12-6.23 3.21-9.34c.87-2.46 1.88-3.17 4.53-3.17 11.8-.01 23.6.01 35.4-.02 1.58 0 3.16-.21 4.73-.39.62-.07 1.42-.18 1.76-.58.73-.85 1.22-1.92 1.81-2.9-.9-.54-1.79-1.53-2.7-1.55-5.96-.15-11.93.09-17.89-.17-3.96-.17-8.01-.54-11.82-1.54-7.12-1.86-10.1-6.64-9.52-13.9.12-1.56.74-1.83 2.12-1.82 7.61.05 15.23.02 22.84.02.02.12.02.23.02.35zm115.47-.29c-1.68 4.81-3.28 9.39-4.88 13.98-2.67 7.65-5.33 15.3-8.01 22.94-.85 2.43-1.8 3.12-4.34 3.14-4.38.02-8.75.02-13.13-.01-.81-.01-1.64-.14-2.44-.32-1.3-.29-1.95-1.18-1.81-2.5.09-.87.31-1.75.6-2.58 1.75-5.09 3.53-10.16 5.29-15.24.2-.58.35-1.18.62-2.08h-5.12c-3.68 0-7.36.07-11.03-.03-1.51-.04-2.23.39-2.72 1.88-1.92 5.83-4 11.6-6.03 17.4-.99 2.84-1.89 3.48-4.88 3.49-4.12.01-8.25.02-12.37-.01-.88-.01-1.77-.13-2.64-.29-1.48-.28-2.19-1.21-2-2.72.09-.68.24-1.37.47-2.02 3.89-11.18 7.81-22.34 11.67-33.52.39-1.12.84-1.59 2.1-1.59 19.79.04 39.58.03 59.36.03.32 0 .64.02 1.29.05zm206.66-6.16c1.87-5.31 3.49-10.36 5.49-15.25.38-.94 2.19-1.49 3.45-1.81 1.19-.3 2.52-.07 3.79-.07 23.33 0 46.67-.02 70.01.02 9.32.02 15.26 8.02 12.68 17.11h-95.42zm-344.86.12c4.1-9.28 11.11-14.2 20.35-16.05 3.7-.74 7.53-1.11 11.31-1.15 12.93-.14 25.86-.06 38.8-.05.63 0 1.28-.02 1.9.08 2.14.38 3.17 1.77 2.53 3.84-1.18 3.8-2.49 7.57-3.97 11.27-.33.82-1.5 1.43-2.41 1.84-.7.32-1.62.21-2.43.21-21.24.01-42.47.01-63.71.01h-2.37z"/><path fill-rule="evenodd" fill="#F57E20" d="M242.51 117.73c-9.58 0-19.15.01-28.73-.01-3.96-.01-4.83-1.27-3.52-5.08 1.01-2.93 2.08-5.85 3.05-8.79.67-2.02 2.01-2.98 4.1-2.98 11.86 0 23.72-.18 35.57.1 4.11.1 8.32.96 12.25 2.2 5.73 1.81 8.85 6.68 8.94 12.39.03 1.65-.51 2.21-2.18 2.2-9.82-.06-19.65-.02-29.48-.03zm346.11.01h-27.79c-.82 0-1.66.02-2.47-.07-1.78-.22-2.76-1.48-2.22-3.21 1.21-3.86 2.55-7.69 3.91-11.5.58-1.61 2.03-2.05 3.55-2.05 11.93-.03 23.85-.13 35.78.05 4.41.06 8.86.53 12.98 2.45 5.13 2.39 7.96 6.26 8 12.06.01 1.68-.43 2.34-2.24 2.32-9.84-.1-19.67-.05-29.5-.05zm-124.06 0h-27.79c-.82 0-1.65.02-2.47-.06-1.97-.21-2.93-1.57-2.32-3.47 1.19-3.68 2.49-7.32 3.76-10.96.59-1.68 1.96-2.33 3.57-2.34 12.05-.03 24.11-.12 36.16.06 3.38.05 6.83.64 10.1 1.53 5.27 1.42 9.17 4.54 10.39 10.23.01.06.04.12.05.18.87 4.28.42 4.84-3.86 4.84h-27.59z"/><path fill-rule="evenodd" fill="#ED2124" d="M683.8 124.03c-1.4 4.03-2.71 7.78-4.02 11.53-2.91 8.37-5.81 16.73-8.72 25.09-1.04 3-1.73 3.5-4.81 3.5-4.37.01-8.75.01-13.12 0-3.74-.01-4.71-1.39-3.45-5.09 2.47-7.24 5-14.47 7.51-21.7 1.37-3.94 2.69-7.9 4.14-11.82.23-.61 1-1.44 1.54-1.45 6.84-.1 13.68-.06 20.93-.06zm36.95 0c-1.61 4.64-3.1 8.99-4.62 13.34l-8.19 23.46c-.98 2.8-1.72 3.33-4.73 3.33-4.31 0-8.62.02-12.93-.01-3.85-.02-4.92-1.52-3.66-5.13 3.87-11.17 7.76-22.34 11.7-33.48.22-.61 1.01-1.43 1.54-1.44 6.83-.11 13.67-.07 20.89-.07zm27.98.08c-.22.73-.38 1.33-.58 1.9l-12.03 34.59c-1.03 2.95-1.86 3.54-5.02 3.54-3.99.01-7.99.01-11.98 0-.69 0-1.4-.01-2.08-.13-2.67-.43-3.4-1.54-2.55-4.09 1.46-4.38 3.01-8.73 4.53-13.09 2.43-6.99 4.9-13.97 7.26-20.98.45-1.34 1-1.89 2.5-1.87 6.02.1 12.05.04 18.07.04.54.01 1.09.06 1.88.09zm-101.92 0c-.49 1.49-.92 2.87-1.39 4.23l-11.04 31.71c-1.23 3.54-2.03 4.1-5.83 4.1-4.06 0-8.11.02-12.17-.01-3.8-.02-4.8-1.41-3.57-4.98 3.86-11.18 7.77-22.34 11.61-33.52.41-1.19.92-1.67 2.26-1.65 6.15.09 12.3.04 18.44.04.49 0 .99.05 1.69.08zm-123.38-.09c-.22.78-.36 1.39-.57 1.97-4.04 11.59-8.08 23.17-12.13 34.76-.96 2.75-1.84 3.38-4.74 3.39-3.93.01-7.86.01-11.79 0-.63 0-1.27-.04-1.89-.14-2.55-.44-3.29-1.53-2.47-3.99 1.88-5.64 3.86-11.25 5.81-16.87 2.01-5.8 4.07-11.58 6.04-17.39.42-1.24.95-1.79 2.38-1.77 6.39.1 12.78.04 19.36.04zm-18.77-6.1c3.75-8.66 9.55-14.54 18.8-16.35 2.59-.51 5.27-.7 7.92-.75 6.08-.11 12.17-.05 18.25-.03 3.85.01 4.93 1.53 3.65 5.15-1.03 2.92-2.13 5.82-3.21 8.72-1.04 2.8-1.78 3.35-4.76 3.35-7.86.02-15.72.01-23.57.01h-14.83c-.68.01-1.35-.05-2.25-.1zm-103.86-.18c1.7-4.9 3.36-9.67 5.03-14.45.6-1.71 1.83-2.5 3.62-2.5 4.75 0 9.5-.05 14.26.02 3.1.04 4.22 1.69 3.23 4.62-1.27 3.77-2.56 7.55-3.94 11.28-.21.55-.99 1.26-1.52 1.27-6.65.08-13.31.04-19.96.02-.18 0-.35-.12-.72-.26zm-40.42.28c1.84-5.24 3.54-10.12 5.27-15 .53-1.5 1.7-2.2 3.21-2.21 4.94-.04 9.89-.08 14.83.02 2.78.06 3.87 1.72 3 4.35-1.29 3.9-2.65 7.78-4.05 11.64-.18.49-.8 1.15-1.23 1.15-6.89.07-13.79.05-21.03.05zm368.66.01c1.42-4.04 2.71-7.73 4-11.43.36-1.02.73-2.03 1.05-3.05.58-1.9 1.86-2.77 3.82-2.76 4.63.01 9.27-.03 13.9.01 3.35.03 4.48 1.63 3.41 4.79-1.24 3.66-2.5 7.31-3.85 10.93-.22.59-.9 1.44-1.37 1.44-6.85.1-13.7.07-20.96.07zm-93.57 77.56c3.39 0 6.79.01 10.19 0 3.08-.01 4.5-1.07 5.37-4 .57-1.92.14-2.52-1.93-2.56-2.08-.04-4.17-.01-6.25-.01-6.13 0-6.13 0-7.5 6.04-.02.06.02.13.12.53zm14.18 4.6c1.3 3.06 2.49 5.84 3.82 8.95-2.28 0-4.33.07-6.37-.05-.43-.03-.99-.66-1.21-1.15-.84-1.91-1.46-3.92-2.38-5.78-.3-.61-1.23-1.24-1.91-1.29-2.21-.17-4.43-.02-6.65-.1-1.14-.04-1.72.36-2.06 1.44-.72 2.29-1.56 4.54-2.35 6.84h-6.77c.55-1.69 1.05-3.24 1.54-4.78 2.06-6.38 4.15-12.75 6.17-19.14.34-1.08.83-1.5 1.98-1.49 5.96.04 11.92-.01 17.88-.01.63 0 1.27.06 1.9.12 4.13.44 5.98 3.14 4.97 7.19-1.14 4.56-3.63 7.9-8.56 9.25zm41.91-16.56c.06.4.1.46.08.52-.95 4.81-.95 4.81-5.87 4.81-3.49 0-6.98.01-10.46-.02-2.93-.02-5.34 1.14-6.55 3.75-1.22 2.6-2.07 5.42-2.75 8.22-.46 1.87.4 2.85 2.27 2.92 3.29.13 6.59.09 9.89.06.41-.01 1.06-.33 1.19-.67.57-1.44.98-2.94 1.54-4.7h-8.3c.45-1.38.76-2.53 1.22-3.62.16-.37.69-.81 1.05-.82 4.55-.05 9.1-.04 13.91-.04-1.69 5.17-3.3 10.08-4.93 15.06-6.17 0-12.26.2-18.33-.06-4.99-.22-7.18-3.49-6.38-8.48.58-3.62 1.72-6.99 3.7-10.08 2.59-4.04 6.19-6.63 11.03-6.8 5.89-.21 11.78-.05 17.69-.05zm-63.49-.24c-.48 1.55-.93 2.73-1.19 3.96-.26 1.21-.85 1.6-2.09 1.58-4.31-.08-8.63-.1-12.94-.04-3.11.05-5.17 1.7-6.07 4.85h18.71c-.47 1.61-.69 2.93-1.26 4.06-.23.45-1.24.71-1.89.72-5.2.09-10.4.21-15.6.09-2.05-.05-2.3 1.13-2.42 2.57-.12 1.51.68 2.48 2.18 2.56 2.53.13 5.07.12 7.61.14 2.66.02 5.31 0 8.27 0-.5 1.66-.86 3.11-1.4 4.49-.14.36-.83.7-1.28.71-5.07.05-10.15.14-15.22.01-5.21-.14-7.63-3.15-6.93-8.43.55-4.14 2-7.97 4.49-11.36 2.86-3.9 6.71-5.88 11.55-5.9 5.06-.02 10.12-.01 15.48-.01zm-93.96.46c-.33 1.1-.6 2.41-1.15 3.57-.2.42-1.09.71-1.67.72-5.2.06-10.41.02-15.61.04-2.54.01-4.04 1.2-4.68 3.61-.45 1.66-.05 2.24 1.7 2.25 3.43.03 6.85 0 10.28.01 6.74.03 8.67 3.19 5.71 9.28-1.88 3.87-5.26 5.54-9.24 5.69-6.64.24-13.3.07-20.21.07.37-1.34.56-2.6 1.1-3.68.23-.46 1.22-.76 1.87-.77 5.07-.06 10.15-.01 15.23-.05 3.03-.03 4.43-.98 5.32-3.4.68-1.86.19-2.65-1.78-2.68-3.43-.04-6.85.02-10.28-.03-6.41-.1-8.29-3.16-5.63-9.03 1.51-3.33 4.26-5.34 7.66-5.5 7.05-.33 14.15-.1 21.38-.1zm49.3 25.28c1.66-5.14 3.23-10 4.82-14.86 1.85-5.65 1.73-5.82-4.27-5.8-2.35.01-4.7.09-7.04 0-1.3-.05-1.89.38-2.28 1.64-1.72 5.56-3.55 11.09-5.34 16.63-.25.78-.54 1.54-.83 2.34h-6.55c.49-1.53.94-2.96 1.4-4.38 2.1-6.5 4.24-13 6.29-19.52.4-1.27.92-1.81 2.36-1.79 5.64.1 11.29.04 16.94.04.32 0 .63 0 .95.01 5.73.31 7.58 2.95 5.84 8.39-1.68 5.24-3.41 10.47-5.06 15.72-.35 1.1-.8 1.71-2.09 1.6-1.6-.11-3.18-.02-5.14-.02zm141.39-24.96c-.6.34-1.3.57-1.78 1.03-4.41 4.2-8.83 8.38-13.11 12.69-1.06 1.06-1.69 2.57-2.44 3.91-.3.54-.43 1.18-.63 1.79-1.96 6.07-1.96 6.07-8.72 5.41.69-2.3 1.22-4.62 2.08-6.81.79-1.99.57-3.72-.23-5.63-1.7-4.02-3.22-8.11-4.81-12.17-.04-.11.01-.25.04-.77 1.82 0 3.68-.08 5.52.06.42.03.92.77 1.14 1.28 1.24 2.95 2.41 5.93 3.73 9.23 2.25-2.2 4.52-3.99 6.23-6.21 3.02-3.92 6.82-5.27 11.55-4.55.29.04.59.04.88.06.18.23.36.45.55.68zm-187.21-.28c6.29-.63 6.29-.63 8.45 4.82.69 1.75 1.39 3.5 2.21 5.55 2.5-2.44 4.99-4.53 7.04-6.98 2.4-2.87 5.18-4.23 8.9-3.64.8.13 1.63.02 2.96.02-.71.75-1.1 1.18-1.52 1.59-4.33 4.19-8.72 8.31-12.97 12.59-1.1 1.11-1.93 2.6-2.55 4.06-.85 1.97-1.32 4.09-2.09 6.1-.19.49-.88 1.07-1.38 1.11-1.82.13-3.66.05-5.89.05.68-2.22 1.15-4.29 1.95-6.23.98-2.39.77-4.55-.25-6.89-1.74-3.94-3.21-7.97-4.86-12.15z"/><path fill-rule="evenodd" d="M755.6 123.98v-.18l-1.74 5.07c-.44 1.29.51 2.63 1.88 2.64l10.28.02c.68 0 1.32-.35 1.69-.92l4.21-6.63H755.6zm30.61-28.2l-19.55-.04c-.85 0-1.61.54-1.89 1.35l-7.19 20.95h18.11l12.19-19.19c.85-1.34-.1-3.07-1.67-3.07z"/></svg>