<svg width="1029" height="705" xmlns="http://www.w3.org/2000/svg"><g id="Careers" stroke="none" stroke-width="1" fill="none" fill-rule="evenodd" fill-opacity=".056"><g fill="#FCBF02" fill-rule="nonzero" id="Group-10"><path d="M533.378 336.544c-4.968-75.01-42.224-145.059-101.213-191.552-58.989-46.493-135.985-65.71-210.497-53.312C88.788 114.617-8.699 237.358.615 372.498c4.347 65.09 31.668 125.222 77.617 171.095-11.798 17.357-22.354 28.516-50.296 50.832-5.588 4.34-8.072 11.159-6.209 17.978 1.242 6.819 6.21 12.398 12.419 14.258C43.46 629.76 57.12 631 72.644 631c32.91 0 74.512-7.439 106.8-24.176 42.845 14.877 88.794 18.597 134.123 10.538 132.88-23.556 229.125-146.918 219.81-280.818zm-390.569 66.33c-24.216 0-43.465-19.217-43.465-43.394 0-24.176 19.249-43.393 43.465-43.393 24.217 0 43.466 19.217 43.466 43.393 0 24.177-19.25 43.394-43.466 43.394zm124.187 0c-24.216 0-43.465-19.217-43.465-43.394 0-24.176 19.249-43.393 43.465-43.393 24.217 0 43.466 19.217 43.466 43.393 0 24.177-19.25 43.394-43.466 43.394zm124.187 0c-24.216 0-43.465-19.217-43.465-43.394 0-24.176 19.249-43.393 43.465-43.393 24.217 0 43.466 19.217 43.466 43.393 0 24.177-19.25 43.394-43.466 43.394z" id="Shape"/><path d="M761.656 542.317c-2.744-41.441-23.326-80.143-55.913-105.83-32.588-25.687-75.123-36.304-116.286-29.454-73.407 12.672-127.263 80.485-122.117 155.148 2.401 35.962 17.494 69.184 42.878 94.528-6.517 9.59-12.349 15.754-27.785 28.084-3.087 2.397-4.46 6.165-3.43 9.932.686 3.768 3.43 6.85 6.86 7.878 5.146 1.712 12.692 2.397 21.268 2.397 18.18 0 41.163-4.11 59-13.357 23.67 8.22 49.053 10.275 74.094 5.822 73.408-13.014 126.577-81.17 121.431-155.148zM546 579c-13.371 0-24-10.629-24-24s10.629-24 24-24 24 10.629 24 24-10.629 24-24 24zm68 0c-13.371 0-24-10.629-24-24s10.629-24 24-24 24 10.629 24 24-10.629 24-24 24zm69 0c-13.371 0-24-10.629-24-24s10.629-24 24-24 24 10.629 24 24-10.629 24-24 24z" id="Shape-Copy"/><path d="M1028.656 137.317c-2.744-41.441-23.326-80.143-55.913-105.83C940.155 5.8 897.62-4.817 856.457 2.033 783.05 14.705 729.194 82.518 734.34 157.181c2.401 35.962 17.494 69.184 42.878 94.528-6.517 9.59-12.349 15.754-27.785 28.084-3.087 2.397-4.46 6.165-3.43 9.932.686 3.768 3.43 6.85 6.86 7.878 5.146 1.712 12.692 2.397 21.268 2.397 18.18 0 41.163-4.11 59-13.357 23.67 8.22 49.053 10.275 74.094 5.822 73.408-13.014 126.577-81.17 121.431-155.148zM813 174c-13.371 0-24-10.629-24-24s10.629-24 24-24 24 10.629 24 24-10.629 24-24 24zm68 0c-13.371 0-24-10.629-24-24s10.629-24 24-24 24 10.629 24 24-10.629 24-24 24zm69 0c-13.371 0-24-10.629-24-24s10.629-24 24-24 24 10.629 24 24-10.629 24-24 24z" id="Shape-Copy-2"/></g></g></svg>