<svg width="25" height="21" xmlns="http://www.w3.org/2000/svg"><g id="Page-1" stroke="none" stroke-width="1" fill="none" fill-rule="evenodd"><g id="Homepage-Orange2" transform="translate(-1247 -2167)" fill="#EA3601"><g id="Group-11" transform="translate(940 2148)"><path d="M332 21.486a9.957 9.957 0 0 1-2.945.834 5.284 5.284 0 0 0 2.255-2.932 10.055 10.055 0 0 1-3.259 1.285A5.04 5.04 0 0 0 324.308 19c-2.83 0-5.127 2.374-5.127 5.301 0 .416.044.82.132 1.208-4.263-.222-8.041-2.33-10.573-5.541a5.431 5.431 0 0 0-.694 2.668 5.35 5.35 0 0 0 2.282 4.412 5.006 5.006 0 0 1-2.324-.661v.065c0 2.57 1.768 4.713 4.116 5.198-.43.124-.884.187-1.352.187a4.95 4.95 0 0 1-.965-.094c.653 2.105 2.546 3.638 4.79 3.68A10.078 10.078 0 0 1 307 37.62a14.2 14.2 0 0 0 7.862 2.38c9.436 0 14.594-8.077 14.594-15.083 0-.23-.005-.461-.014-.687A10.577 10.577 0 0 0 332 21.486" id="twitter"/></g></g></g></svg>